<?xml version="1.0" encoding="utf-8"?>
<!-- Generator: Adobe Illustrator 25.4.1, SVG Export Plug-In . SVG Version: 6.00 Build 0)  -->
<svg version="1.1" id="Calque_1" xmlns="http://www.w3.org/2000/svg" xmlns:xlink="http://www.w3.org/1999/xlink" x="0px" y="0px"
	 viewBox="0 0 5973.3 3264.7" style="enable-background:new 0 0 5973.3 3264.7;" xml:space="preserve">
<style type="text/css">
	.st0{fill:#E05B11;}
	.st1{fill:none;}
	.st2{enable-background:new    ;}
	.st3{fill:#FFFFFF;}
	.st4{fill:#020000;}
</style>
<g>
	<polygon class="st0" points="0,17.4 5973.3,0 5973.3,1982.6 0,2000 	"/>
	<rect x="-282.7" y="675.3" class="st1" width="4170.4" height="755.5"/>
	<g class="st2">
		<path class="st3" d="M2833.4,1115.3h573.8c145.1,0,182.3,4.5,229.5,28.1c75.4,37.1,103.5,105.8,103.5,247.5
			c0,142.9-25.9,217.2-87.8,255.4c-43.9,27-94.5,34.9-225,34.9h-366.8v184.5h-227.3V1115.3z M3392.6,1499
			c93.4,0,120.4-20.3,120.4-91.1c0-90-22.5-110.3-120.4-110.3h-331.9V1499H3392.6z"/>
		<path class="st3" d="M4727,1168.2c58.5,47.3,77.6,126,77.6,318.4c0,196.9-15.8,272.3-67.5,320.7c-54,50.6-132.8,64.1-382.6,64.1
			c-318.4,0-370.2-7.9-423.1-66.4c-46.1-51.8-59.6-122.6-59.6-316.2c0-192.4,21.4-275.7,85.5-322.9c55.1-41.6,158.6-56.3,388.2-56.3
			C4583,1109.6,4671.9,1123.2,4727,1168.2z M4086.8,1497.8c0,184.5,14.6,195.8,257.7,195.8c124.9,0,182.3-9,210.4-32.6
			c29.3-24.8,34.9-55.1,34.9-178.9c0-186.8-13.5-198-252-198C4102.6,1284,4086.8,1297.5,4086.8,1497.8z"/>
		<path class="st3" d="M5545,1722.9h-596.3v-265.5l538.9-342h265.5v450.1h121.5v153h-121.5v147.4H5545V1722.9z M5545,1287.4
			l-442.2,277.9H5545V1287.4z"/>
	</g>
	<g class="st2">
		<path d="M55.2,2099.7h73.3c33,0,45.1,11.5,45.1,43.4c0,27.3-6,36.4-26.6,39.8v0.2c15.9,0.9,24.7,11.3,24.5,29.2v38.2h-17.3v-34.4
			c0.5-19.2-8.3-26.9-29.1-26.2H72.5v60.6H55.2V2099.7z M122.7,2175.2c25.4,0,33.5-6.6,33.5-26.9c0-15.6-0.9-22.1-4.2-26.4
			c-3.5-5-11.1-7.5-23.3-7.5H72.5v60.8H122.7z"/>
		<path d="M215.3,2165.5h78.1v14.2h-78.1v56h81.6v14.7H198v-150.7h98.9v14.7h-81.6V2165.5z"/>
		<path d="M450.8,2250.5h-28.4l-64.7-102.6l-10.4-16.9l-5.3-8.4l-5.1-8.4h-0.5l0.2,5.6v5.7v11.3v113.7h-17.3v-150.7h28.4l56.2,89.9
			l14.8,23.5l7.4,11.8l7.2,11.8h0.5l-0.2-5.6v-5.7v-11.3v-114.4h17.3V2250.5z"/>
		<path d="M497.5,2165.5h78.1v14.2h-78.1v56H579v14.7h-98.9v-150.7H579v14.7h-81.6V2165.5z M559.4,2070.6l-34.7,17l-5.5-8.6
			l33.5-20.6L559.4,2070.6z"/>
		<path d="M676.1,2218.6l-11.8,31.9h-18.5l56.4-150.7h24.5l57.5,150.7H766l-12-31.9H676.1z M714.7,2113.5L681,2205h67.9
			L714.7,2113.5z"/>
		<path d="M931.4,2250.5H903l-64.7-102.6l-10.4-16.9l-5.3-8.4l-5.1-8.4h-0.5l0.2,5.6v5.7v11.3v113.7H800v-150.7h28.4l56.2,89.9
			l14.8,23.5l7.4,11.8l7.2,11.8h0.5l-0.2-5.6v-5.7v-11.3v-114.4h17.3V2250.5z"/>
		<path d="M960.8,2099.7h71.2c22.4,0,34.9,3.8,43.2,13.1c10.2,11.5,13.4,24.9,13.4,55.8c0,36.8-1.6,49.3-7.6,60.1
			c-6,10.6-13.9,16.5-26.3,19.2c-6.9,1.6-13.9,2.5-18.3,2.5h-75.6V2099.7z M1028.3,2235.8c16.9,0,28.9-3.4,34.2-9.5
			c6.7-8.1,8.8-19.2,8.8-48.1c0-36.4-1.4-45-8.1-53.8c-5.5-7.2-14.3-9.9-31.2-9.9h-53.8v121.4H1028.3z"/>
		<path d="M1113.1,2099.7h73.3c33,0,45.1,11.5,45.1,43.4c0,27.3-6,36.4-26.6,39.8v0.2c15.9,0.9,24.7,11.3,24.5,29.2v38.2H1212v-34.4
			c0.5-19.2-8.3-26.9-29.1-26.2h-52.5v60.6h-17.3V2099.7z M1180.6,2175.2c25.4,0,33.5-6.6,33.5-26.9c0-15.6-0.9-22.1-4.2-26.4
			c-3.5-5-11.1-7.5-23.3-7.5h-56.2v60.8H1180.6z"/>
		<path d="M1274.4,2165.5h78.1v14.2h-78.1v56h81.6v14.7H1257v-150.7h98.9v14.7h-81.6V2165.5z M1336.3,2070.6l-34.7,17l-5.5-8.6
			l33.5-20.6L1336.3,2070.6z"/>
		<path d="M1526.3,2140.6c0-11.1-0.7-15.4-3.2-19.4c-4.2-6.6-11.3-8.4-32.1-8.4c-24,0-32.1,1.4-37,6.8c-3.7,4.1-5.5,10.4-5.5,19.9
			c0,13.6,3.2,20.3,11.1,23.3c5.1,1.8,6.2,2,31.9,3.2c28.4,1.4,37,2.9,43.9,8.4c8.1,6.1,11.1,15.4,11.1,33.4
			c0,20.6-3.7,31.4-12.9,37.3c-8.8,5.4-19.6,7-51.1,7c-21.5,0-28.7-1.1-37.7-6.1c-6-3.4-10.9-10.6-12.5-18.3
			c-1.4-6.6-1.8-10.8-2.1-23.7h17.3c0.2,16.3,0.5,19.2,3.5,24.6c4.2,7.7,9.2,8.8,37,8.8c37.2,0,41.1-3.2,41.1-31.2
			c0-12.7-2.5-18.5-9.5-21.2c-4.4-1.8-4.4-1.8-32.6-3.4c-28.7-1.4-30.7-1.8-38.4-5.2c-12.5-6.1-17.6-16.3-17.6-35.3
			c0-17.6,3.7-28.2,11.6-34.1c8.8-6.8,19.9-8.8,46.2-8.8c29.1,0,40.9,2.9,48.1,12.4c4.9,6.3,6.7,14,6.7,27.6v2.5H1526.3z"/>
		<path d="M1587.3,2218.6l-11.8,31.9H1557l56.4-150.7h24.5l57.5,150.7h-18.3l-12-31.9H1587.3z M1625.8,2113.5l-33.7,91.5h67.9
			L1625.8,2113.5z"/>
		<path d="M1728.5,2250.5h-17.3v-150.7h17.3V2250.5z"/>
		<path d="M1889,2250.5h-28.4l-64.7-102.6l-10.4-16.9l-5.3-8.4l-5.1-8.4h-0.5l0.2,5.6v5.7v11.3v113.7h-17.3v-150.7h28.4l56.2,89.9
			l14.8,23.5l7.4,11.8l7.2,11.8h0.5l-0.2-5.6v-5.7v-11.3v-114.4h17.3V2250.5z"/>
		<path d="M1974.8,2250.5h-17.3v-134.9h-50.1v-15.8h117.4v16l-49.9-0.2V2250.5z"/>
		<path d="M2061.2,2188.1v14.7h-48.1l0.2-14.7H2061.2z"/>
		<path d="M2093.1,2166.8h75.1v14.2h-75.1v69.4h-17.3v-150.7h94.5v14.7h-77.2V2166.8z"/>
		<path d="M2206.1,2234.6h79.3v15.8h-96.6v-150.7h17.3V2234.6z"/>
		<path d="M2318.2,2165.5h78.1v14.2h-78.1v56h81.6v14.7h-98.9v-150.7h98.9v14.7h-81.6V2165.5z"/>
		<path d="M2543.5,2099.7v105.5c0,18.1-1.8,25.8-7.9,33.2c-9,10.6-20.3,13.6-54.3,13.6c-20.6,0-29.1-0.9-37-3.8
			c-17.6-6.3-22.9-16.5-22.9-42.9v-105.5h17.3v105.5c0,12,0.9,18.3,3.2,22.1c4.6,7.7,13.6,9.9,38.4,9.9c41.1,0,45.8-3.4,45.8-32.1
			v-105.5H2543.5z"/>
		<path d="M2571.9,2099.7h73.3c33,0,45.1,11.5,45.1,43.4c0,27.3-6,36.4-26.6,39.8v0.2c15.9,0.9,24.7,11.3,24.5,29.2v38.2h-17.3
			v-34.4c0.5-19.2-8.3-26.9-29.1-26.2h-52.5v60.6h-17.3V2099.7z M2639.4,2175.2c25.4,0,33.5-6.6,33.5-26.9c0-15.6-0.9-22.1-4.2-26.4
			c-3.5-5-11.1-7.5-23.3-7.5h-56.2v60.8H2639.4z"/>
	</g>
	<g class="st2">
		<path d="M176.6,2419.7c0.5,6.3,0.5,7,0.5,16.3c0,27.6-0.9,35.3-5.6,43.4c-3.6,6.8-9.7,11.3-18.3,14c-6.1,1.8-18.3,2.7-37.3,2.7
			c-29.6,0-40.2-2.3-50.8-11.1c-6.8-5.6-11.8-17.6-12.4-30.3c-0.2-6.8-0.2-8.1-0.5-37.5v-6.3c0-27.1,1.8-38.6,7.2-49.7
			c5-9.7,13.6-15.4,26.4-17.6c5-0.9,14.7-1.4,28.5-1.4c33.9,0,39.8,0.9,50.2,7.5c5.6,3.6,9.9,10.6,11.3,18.3
			c0.7,5.4,0.9,8.4,0.9,19.7h-16.7c-0.2-29.2-2.7-30.7-47.9-30.7c-26,0-34.4,2.5-38.6,12c-3.4,7.5-4.3,17.4-4.3,48.1
			c0,39.3,0.5,45.2,4.1,52.7c4.7,9.5,14,12,45.4,12c38.4,0,41.6-2.9,41.6-38.4c0-1.6,0-5-0.2-8.8h-47.9v-14.7H176.6z"/>
		<path d="M216.8,2462.6l-11.5,31.9h-18.1l55.1-150.7h24l56.3,150.7h-17.9l-11.8-31.9H216.8z M254.5,2357.5l-33,91.5H288
			L254.5,2357.5z"/>
		<path d="M340.4,2343.7h66.7c19.2,0,24.9,0.9,31,4.5c9.9,5.9,13.8,16,13.8,35.7c0,18.8-4.5,26.4-19.2,31.6v0.5
			c18.1,4.3,24,12.9,24,35.9c0,18.8-5,31.2-14.5,36.8c-5.9,3.4-16.5,5.7-28,5.7h-73.7V2343.7z M402.1,2410.2c14.2,0,19-0.7,24-3.6
			c6.6-3.6,8.8-9.5,8.8-23.5c0-13.1-2.3-19-8.6-22.4c-3.6-1.8-7.7-2.3-19.7-2.3h-49.3v51.8H402.1z M393.5,2479.8
			c25.1,0,31-0.5,36.6-2.9c6.8-2.9,9.5-9.3,9.5-23.3c0-14.5-2.3-21.2-7.9-25.1c-5.4-3.4-7.7-3.6-30.5-3.6h-43.8v54.9H393.5z"/>
		<path d="M479.8,2343.7h71.6c32.3,0,44.1,11.5,44.1,43.4c0,27.3-5.9,36.4-26,39.8v0.2c15.6,0.9,24.2,11.3,24,29.2v38.2h-17v-34.4
			c0.5-19.2-8.1-26.9-28.5-26.2h-51.3v60.6h-16.9V2343.7z M545.8,2419.2c24.9,0,32.8-6.6,32.8-26.9c0-15.6-0.9-22.1-4.1-26.4
			c-3.4-5-10.8-7.5-22.8-7.5h-54.9v60.8H545.8z"/>
		<path d="M636.5,2494.5h-16.9v-150.7h16.9V2494.5z"/>
		<path d="M681.9,2409.5h76.4v14.2h-76.4v56h79.8v14.7h-96.7v-150.7h96.7v14.7h-79.8V2409.5z"/>
		<path d="M800.5,2478.6h77.5v15.8h-94.5v-150.7h16.9V2478.6z"/>
		<path d="M910.1,2478.6h77.5v15.8h-94.5v-150.7h16.9V2478.6z"/>
		<path d="M1028.6,2462.6l-11.5,31.9H999l55.1-150.7h24l56.3,150.7h-17.9l-11.8-31.9H1028.6z M1066.3,2357.5l-33,91.5h66.4
			L1066.3,2357.5z"/>
		<path d="M1206.2,2343.7h66.7c19.2,0,24.9,0.9,31,4.5c9.9,5.9,13.8,16,13.8,35.7c0,18.8-4.5,26.4-19.2,31.6v0.5
			c18.1,4.3,24,12.9,24,35.9c0,18.8-5,31.2-14.5,36.8c-5.9,3.4-16.5,5.7-28,5.7h-73.7V2343.7z M1267.9,2410.2c14.2,0,19-0.7,24-3.6
			c6.6-3.6,8.8-9.5,8.8-23.5c0-13.1-2.3-19-8.6-22.4c-3.6-1.8-7.7-2.3-19.7-2.3h-49.3v51.8H1267.9z M1259.3,2479.8
			c25.1,0,31-0.5,36.6-2.9c6.8-2.9,9.5-9.3,9.5-23.3c0-14.5-2.3-21.2-7.9-25.1c-5.4-3.4-7.7-3.6-30.5-3.6h-43.8v54.9H1259.3z"/>
		<path d="M1464.3,2343.7v105.5c0,18.1-1.8,25.8-7.7,33.2c-8.8,10.6-19.9,13.6-53.1,13.6c-20.1,0-28.5-0.9-36.2-3.8
			c-17.2-6.3-22.4-16.5-22.4-42.9v-105.5h17v105.5c0,12,0.9,18.3,3.2,22.1c4.5,7.7,13.3,9.9,37.5,9.9c40.2,0,44.7-3.4,44.7-32.1
			v-105.5H1464.3z"/>
		<path d="M1547.7,2494.5h-16.9v-134.9h-49v-15.8h114.8v16l-48.8-0.2V2494.5z"/>
		<path d="M1631.3,2409.5h76.4v14.2h-76.4v56h79.8v14.7h-96.7v-150.7h96.7v14.7h-79.8V2409.5z"/>
		<path d="M1755.4,2462.6l-11.5,31.9h-18.1l55.1-150.7h24l56.3,150.7h-17.9l-11.8-31.9H1755.4z M1793.1,2357.5l-33,91.5h66.4
			L1793.1,2357.5z"/>
		<path d="M1993.6,2343.7v105.5c0,18.1-1.8,25.8-7.7,33.2c-8.8,10.6-19.9,13.6-53.1,13.6c-20.1,0-28.5-0.9-36.2-3.8
			c-17.2-6.3-22.4-16.5-22.4-42.9v-105.5h17v105.5c0,12,0.9,18.3,3.2,22.1c4.5,7.7,13.3,9.9,37.5,9.9c40.2,0,44.7-3.4,44.7-32.1
			v-105.5H1993.6z"/>
		<path d="M2054.1,2432.1v14.7h-47l0.2-14.7H2054.1z"/>
		<path d="M2068.4,2343.7h63.1c19.4,0,24.9,0.7,31.6,3.6c12.4,5.4,18.3,19,18.3,42.9c0,22.6-5.7,35.3-18.3,41.4
			c-7,3.4-8.1,3.4-34.1,3.8h-43.6v59h-16.9V2343.7z M2125.6,2420.8c33.4,0,38.9-4.1,38.9-29.6c0-19.7-2.3-27.1-9.3-30.3
			c-4.5-2-6.3-2.3-24.2-2.5h-45.7v62.4H2125.6z"/>
		<path d="M2218.7,2409.5h76.4v14.2h-76.4v56h79.8v14.7h-96.7v-150.7h96.7v14.7h-79.8V2409.5z"/>
		<path d="M2449,2494.5h-27.8l-63.3-102.6l-10.2-16.9l-5.2-8.4l-5-8.4h-0.5l0.2,5.6v5.7v11.3v113.7h-16.9v-150.7h27.8l54.9,89.9
			l14.5,23.5l7.2,11.8l7,11.8h0.5l-0.2-5.7v-5.7v-11.3v-114.4h17V2494.5z"/>
		<path d="M2496.6,2462.6l-11.5,31.9H2467l55.1-150.7h24l56.3,150.7h-17.9l-11.8-31.9H2496.6z M2534.4,2357.5l-33,91.5h66.4
			L2534.4,2357.5z"/>
	</g>
	<g>
		<g>
			<line class="st1" x1="77.3" y1="2684.9" x2="174.1" y2="2685"/>
			<rect x="77.3" y="2679.9" class="st4" width="96.7" height="10.2"/>
			<path class="st4" d="M140.1,2623.5c0-4.5,3.7-8.2,8.2-8.2s8.2,3.7,8.2,8.2s-3.7,8.2-8.2,8.2S140.1,2628.1,140.1,2623.5"/>
			<path class="st4" d="M117.3,2623.5c0-4.5,3.7-8.2,8.2-8.2s8.2,3.7,8.2,8.2s-3.7,8.2-8.2,8.2S117.3,2628.1,117.3,2623.5"/>
			<path class="st4" d="M94.5,2623.5c0-4.5,3.7-8.2,8.2-8.2s8.2,3.7,8.2,8.2s-3.7,8.2-8.2,8.2S94.5,2628.1,94.5,2623.5"/>
			<path class="st4" d="M163.1,2674.8H87.7v-1l-18.4-103.2l8.2-1.4l2.4,13.6c2.3-0.5,3.8-1,6.1-1.9c0.9-0.3,1.9-0.7,3.1-1.1
				c1.4-0.9,2.3-1.4,3.1-1.9c1.2-0.6,1.7-0.9,3.7-2.9l0.5-0.4c0,0,0.1-0.1,0.4-0.3l0,0l3-2.6c0.8-0.7,1.6-1.6,2.4-2.6l0.3,0.2
				l0.6-0.5c2.9,3.4,5.8,5.5,5.8,5.5l0.5,0.4c2,1.9,2.5,2.2,3.7,2.9c0.8,0.4,1.7,0.9,3.1,1.8c3.5,1.2,4.5,1.3,7,1.5
				c1,0.1,2.1,0.2,3.5,0.3c4.4-0.3,5.5-0.8,9.2-2.2l1.1-0.4l1.9-1.3c1.8-1.2,2.2-1.5,5-3c0.8-0.8,3-3,5.4-5.8l1.2,1l0.1-0.1
				c0.1,0.2,0.3,0.4,0.4,0.5l4.6,4c0,0.1-0.1,0.1-0.1,0.2c0.1,0.1,0.1,0.1,0.1,0.1l0.7,0.6c1.8,1.8,2.4,2.1,3.8,2.7
				c1,0.4,2.1,1,3.7,2.1c1.2,0.4,2.2,0.8,3.1,1.1c1.9,0.7,3.2,1.2,4.9,1.6l2.5-13.2l8.2,1.5l-19,102.1l-0.4-0.1L163.1,2674.8
				L163.1,2674.8z M94.9,2666.4h61.3l14.1-75.9c-2.3-0.6-4-1.2-6.3-2c-1-0.4-2.1-0.8-3.4-1.3l-0.9-0.4c-1.4-0.9-2.3-1.4-3.2-1.8
				c-1.9-0.9-3.4-1.7-5.8-4.1c-0.2-0.2-0.5-0.4-0.9-0.7c-0.3,0.3-0.4,0.4-0.4,0.4l-0.9,0.6c-3,1.7-3.1,1.8-4.8,2.9l-3.1,2l-1.5,0.6
				c-4.4,1.7-6.1,2.3-11.6,2.7v0.1c-0.3,0-0.5-0.1-0.8-0.1c-0.7,0-1.4,0.1-2.1,0.1v-0.4c-0.7-0.1-1.3-0.1-1.8-0.1
				c-3.1-0.2-4.9-0.4-9.6-2.1l-0.9-0.4c-1.3-0.9-2.2-1.4-2.9-1.7c-1.7-0.9-2.9-1.6-5.4-4.1c-0.2-0.2-0.5-0.4-0.9-0.7
				c-0.5,0.5-1,0.8-1.2,1c-2.5,2.5-3.7,3.2-5.4,4.1c-0.7,0.4-1.6,0.9-2.9,1.7l-1.1,0.5c-1.4,0.5-2.5,0.9-3.5,1.3
				c-2.7,1-4.6,1.7-7.6,2.3L94.9,2666.4z"/>
		</g>
		<g>
			<polygon class="st4" points="597.2,2690.9 476.7,2690.9 536.4,2573.6 			"/>
			<path class="st4" d="M605.5,2696H468.4l68-133.4L605.5,2696z M484.9,2685.8h104l-52.5-101L484.9,2685.8z"/>
			<polygon class="st4" points="454.3,2675.5 448.8,2663.1 520.7,2631.1 448.8,2599.1 454.3,2586.9 537.2,2623.8 619,2587.4 
				624.5,2599.8 553.9,2631.1 624.5,2662.6 619,2675 537.2,2638.6 			"/>
		</g>
		<g>
			<path class="st4" d="M384.1,2697.5h-137v-136.3h137V2697.5z M258,2686.6h115.3V2572H258V2686.6z M315.5,2682
				c-29.3,0-53.2-23.9-53.2-53.2s23.9-53.2,53.2-53.2s53.2,23.9,53.2,53.2S344.8,2682,315.5,2682 M315.5,2586.4
				c-23.4,0-42.3,19-42.3,42.3c0,23.4,19,42.4,42.3,42.4c23.4,0,42.4-19,42.4-42.4C357.8,2605.4,338.8,2586.4,315.5,2586.4"/>
		</g>
		<g>
			<path class="st4" d="M783,2697.5c-37.6,0-68.2-30.6-68.2-68.1c0-37.6,30.6-68.1,68.2-68.1s68.2,30.6,68.2,68.1
				S820.7,2697.5,783,2697.5 M783,2572c-31.6,0-57.3,25.7-57.3,57.3s25.7,57.3,57.3,57.3s57.3-25.7,57.3-57.3
				C840.5,2597.6,814.8,2572,783,2572"/>
			<polygon class="st4" points="695,2676.1 689.2,2663.1 765.8,2629 689.2,2594.9 695,2581.8 783.5,2621.1 870.5,2582.2 
				876.5,2595.5 801.2,2629 876.5,2662.5 870.5,2675.6 783.5,2636.9 			"/>
		</g>
		<g>
			<path class="st4" d="M1094.2,2691.1h-153l1.2-5.9c1.1-5.4,11.2-52.8,27.8-64.6c12.6-9,26.1-8.7,26.7-8.6h77.4l-4.3-34.7h-90.3
				v-9.9h99.1L1094.2,2691.1z M953.5,2681.2H1083l-7.4-59.3h-78.8c-0.2,0-11.1-0.2-20.8,6.8C966,2635.8,957.2,2665.1,953.5,2681.2"
				/>
			<path class="st4" d="M1012,2650.8c0-5.4,4.4-9.8,9.8-9.8s9.8,4.4,9.8,9.8s-4.4,9.8-9.8,9.8S1012,2656.1,1012,2650.8"/>
		</g>
	</g>
</g>
<polygon class="st1" points="1552.8,2629.3 1560.1,2629.3 1560.1,2629.3 "/>
</svg>
