<?xml version="1.0" encoding="utf-8"?>
<!-- Generator: Adobe Illustrator 25.4.1, SVG Export Plug-In . SVG Version: 6.00 Build 0)  -->
<svg version="1.1" id="Calque_1" xmlns="http://www.w3.org/2000/svg" xmlns:xlink="http://www.w3.org/1999/xlink" x="0px" y="0px"
	 viewBox="0 0 1251.9 2410.3" style="enable-background:new 0 0 1251.9 2410.3;" xml:space="preserve">
<style type="text/css">
	.st0{fill:#DA3715;}
	.st1{fill:none;}
	.st2{enable-background:new    ;}
	.st3{fill:#FFFFFF;}
	.st4{fill:#020000;}
</style>
<g>
	<rect x="62.2" y="3.6" class="st0" width="616.7" height="2185.9"/>
	<rect x="128.1" y="-148.2" class="st1" width="485.3" height="2558.5"/>
	<g class="st2">
		<path class="st3" d="M128,2106.2v-140.1h178.5v-318.9H128V1507h482v140.1H425.8v318.9h184.3v140.1H128z"/>
		<path class="st3" d="M162,880.9c30.4-35.9,80.9-47.6,204.5-47.6c126.5,0,174.9,9.7,206,41.4c32.5,33.1,41.2,81.5,41.2,234.7
			c0,195.4-5.1,227.1-42.6,259.6c-33.2,28.3-78.8,36.6-203.1,36.6c-123.6,0-177.1-13.1-207.4-52.5c-26.7-33.8-36.1-97.3-36.1-238.2
			C124.4,969.3,133.1,914.7,162,880.9z M373.8,1273.7c118.5,0,125.7-9,125.7-158.1c0-76.6-5.8-111.8-21-129.1
			c-15.9-17.9-35.4-21.4-114.9-21.4c-120,0-127.2,8.3-127.2,154.6C236.4,1264,245.1,1273.7,373.8,1273.7z"/>
		<path class="st3" d="M289.9,733.9c-83.1-2.8-102.6-8.3-125-32.4c-20.2-22.1-31.8-57.3-35.4-116.7c-2.9-29.7-3.6-72.5-3.6-130.5
			c0-218.8,20.2-256.8,135.9-256.8c70.8,0,91.8,13.1,106.2,67c18.1-64.2,36.9-76.6,112.7-76.6c69.4,0,107.7,24.2,120.7,75.9
			c8.7,31.8,10.8,76.6,10.8,197.4c0,157.4-3.6,194.7-20.2,226.4c-19.5,34.5-59.3,51.8-121.4,51.8c-4.3,0-18.1-0.7-30.4-1.4V611
			c70.1,0,73.7-7.6,73.7-144.3c0-69.7-2.2-107-5.8-120.8c-5.1-17.9-19.5-26.2-43.4-26.2c-21.7,0-36.9,7.6-44.1,21.4
			c-5.1,9.7-7.2,28.3-7.2,66.3v109.8h-91.1V413.6c0-29-3.6-56.6-7.9-64.9c-7.2-12.4-19.5-18.6-39.7-18.6s-34.7,8.3-41.2,23.5
			c-6.5,16.6-6.5,16.6-9.4,111.8c1.4,98,1.4,98,7.9,113.9c6.5,17.3,19.5,26.2,39,26.2c5.1,0,11.6-0.7,18.8-1.4V733.9z"/>
	</g>
	<g class="st2">
		<path d="M780,2180.3v4.9h-45.5v-4.9H780z"/>
		<path d="M746.9,2146.8c-3.3,0-4.6,0.2-5.9,0.9c-2,1.2-2.5,3.2-2.5,9c0,6.8,0.4,9,2,10.4c1.2,1,3.1,1.6,6,1.6c4.1,0,6.1-0.9,7-3.1
			c0.5-1.4,0.6-1.8,1-9c0.4-8,0.9-10.4,2.5-12.4c1.8-2.3,4.6-3.1,10.1-3.1c6.2,0,9.5,1,11.2,3.6c1.6,2.5,2.1,5.5,2.1,14.4
			c0,6.1-0.3,8.1-1.8,10.6c-1,1.7-3.2,3.1-5.5,3.5c-2,0.4-3.3,0.5-7.2,0.6v-4.9c4.9-0.1,5.8-0.1,7.4-1c2.3-1.2,2.7-2.6,2.7-10.4
			c0-10.5-1-11.6-9.4-11.6c-3.8,0-5.6,0.7-6.4,2.7c-0.5,1.2-0.5,1.2-1,9.2c-0.4,8.1-0.5,8.7-1.6,10.8c-1.8,3.5-4.9,4.9-10.6,4.9
			c-5.3,0-8.5-1-10.3-3.3c-2-2.5-2.7-5.6-2.7-13c0-8.2,0.9-11.5,3.7-13.5c1.9-1.4,4.2-1.9,8.3-1.9h0.8V2146.8z"/>
		<path d="M770.4,2129.6l9.6,3.3v5.2l-45.5-15.9v-6.9l45.5-16.2v5.1l-9.6,3.4V2129.6z M738.7,2118.7l27.6,9.5v-19.1L738.7,2118.7z"
			/>
		<path d="M734.5,2094v-19.2c0-5.5,0.3-7.2,1.4-8.9c1.8-2.9,4.8-4,10.8-4c5.7,0,8,1.3,9.5,5.5h0.1c1.3-5.2,3.9-6.9,10.8-6.9
			c5.7,0,9.4,1.4,11.1,4.2c1,1.7,1.7,4.8,1.7,8.1v21.2H734.5z M754.6,2076.2c0-4.1-0.2-5.5-1.1-6.9c-1.1-1.9-2.9-2.5-7.1-2.5
			c-4,0-5.7,0.7-6.7,2.5c-0.5,1-0.7,2.2-0.7,5.7v14.2h15.6V2076.2z M775.6,2078.7c0-7.2-0.1-8.9-0.9-10.5c-0.9-2-2.8-2.7-7-2.7
			c-4.4,0-6.4,0.7-7.6,2.3c-1,1.6-1.1,2.2-1.1,8.8v12.6h16.6V2078.7z"/>
		<path d="M754.4,2048.9v-22h4.3v22h16.9v-23h4.4v27.9h-45.5v-27.9h4.4v23H754.4z"/>
		<path d="M775.2,2014.8v-22.3h4.8v27.2h-45.5v-4.9H775.2z"/>
		<path d="M734.5,1971.8v-20c0-6.3,1.2-9.8,4-12.2c3.5-2.9,7.5-3.8,16.8-3.8c11.1,0,14.9,0.5,18.1,2.1c3.2,1.7,5,3.9,5.8,7.4
			c0.5,2,0.7,3.9,0.7,5.1v21.3H734.5z M775.6,1952.8c0-4.8-1-8.1-2.9-9.6c-2.5-1.9-5.8-2.5-14.5-2.5c-11,0-13.6,0.4-16.2,2.3
			c-2.2,1.6-3,4-3,8.8v15.2h36.6V1952.8z"/>
		<path d="M734.5,1894.7h31.8c5.5,0,7.8,0.5,10,2.2c3.2,2.5,4.1,5.7,4.1,15.3c0,5.8-0.3,8.2-1.2,10.4c-1.9,4.9-5,6.4-12.9,6.4h-31.8
			v-4.9h31.8c3.6,0,5.5-0.3,6.7-0.9c2.3-1.3,3-3.8,3-10.8c0-11.6-1-12.9-9.7-12.9h-31.8V1894.7z"/>
		<path d="M734.5,1886.7v-20.6c0-9.3,3.5-12.7,13.1-12.7c8.2,0,11,1.7,12,7.5h0.1c0.3-4.5,3.4-7,8.8-6.9H780v4.9h-10.4
			c-5.8-0.1-8.1,2.3-7.9,8.2v14.8H780v4.9H734.5z M757.3,1867.7c0-7.2-2-9.4-8.1-9.4c-4.7,0-6.7,0.3-8,1.2c-1.5,1-2.2,3.1-2.2,6.6
			v15.8h18.3V1867.7z"/>
		<path d="M770.4,1840.5l9.6,3.3v5.2l-45.5-15.9v-6.9L780,1810v5.1l-9.6,3.4V1840.5z M738.7,1829.6l27.6,9.5V1820L738.7,1829.6z"/>
		<path d="M780,1768.6v8l-30.9,18.2l-5.1,2.9l-2.5,1.5l-2.5,1.4v0.1l1.7-0.1h1.7h3.4H780v4.9h-45.5v-8l27.1-15.8l7.1-4.2l3.5-2.1
			l3.5-2v-0.1l-1.7,0.1h-1.7H769h-34.5v-4.9H780z"/>
	</g>
	<g class="st2">
		<path d="M836.6,2180.3v-21.2h4.3v21.2h20.9v4.9h-45.5v-26.6h4.4v21.7H836.6z"/>
		<path d="M816.3,2153.4v-20.6c0-9.3,3.5-12.7,13.1-12.7c8.2,0,11,1.7,12,7.5h0.1c0.3-4.5,3.4-7,8.8-6.9h11.5v4.9h-10.4
			c-5.8-0.1-8.1,2.3-7.9,8.2v14.8h18.3v4.9H816.3z M839.1,2134.4c0-7.2-2-9.4-8.1-9.4c-4.7,0-6.7,0.3-8,1.2c-1.5,1-2.2,3.1-2.2,6.6
			v15.8h18.3V2134.4z"/>
		<path d="M852.2,2107.2l9.6,3.3v5.2l-45.5-15.9v-6.9l45.5-16.2v5.1l-9.6,3.4V2107.2z M820.5,2096.3l27.6,9.5v-19.1L820.5,2096.3z"
			/>
		<path d="M861.8,2035.3v8l-30.9,18.2l-5.1,2.9l-2.5,1.5l-2.5,1.4v0.1l1.7-0.1h1.7h3.4h34.3v4.9h-45.5v-8l27.1-15.8l7.1-4.2l3.5-2.1
			l3.5-2v-0.1l-1.7,0.1h-1.7h-3.4h-34.5v-4.9H861.8z"/>
		<path d="M846.6,1993.3c8.1,0,9.7,0.3,12.1,2.1c2.3,1.8,3.3,4.8,3.5,10.3c0.1,1.6,0.1,4.2,0.1,6.5c0,6.1-0.5,8.6-2.5,11.3
			c-1.4,2-4.4,3.6-7.7,4c-2.7,0.4-8.3,0.7-13,0.7c-9.9,0-11,0-13.5-0.5c-4.6-0.7-8.1-4-9.1-8.8c-0.5-2.4-0.7-5.3-0.7-11.1
			c0-5.5,0.3-7.5,1.6-9.7c1.3-2.3,4-3.8,7.2-4.1c1.4-0.1,2.3-0.2,5.5-0.3v4.9c-4.8,0.1-6.2,0.3-7.6,1c-1.8,1.1-2.4,3-2.4,8.3
			c0,6.1,0.3,10,1,11.5c1.3,2.7,3.7,3.6,10.8,3.6c25.6,0,25.8-0.1,25.8-12c0-11.7-0.9-13-8.7-13h-2.6V1993.3z M867.2,2006.9l7.5,5.1
			l-1.6,2.9l-7.9-4.4L867.2,2006.9z"/>
		<path d="M817.3,1958.1c1.6-3.7,5-5.7,10.8-6.4c2-0.2,3.1-0.3,8.9-0.3c10.6,0,12.2,0.1,15.7,0.8c4,0.8,6.6,2.7,8,5.8
			c1.2,2.7,1.5,4.9,1.5,11.3c0,7.6-0.3,9.7-1.5,12.5c-1.4,3.1-4,4.9-8,5.8c-3.5,0.7-5,0.8-15.6,0.8c-9.5,0-12.1-0.4-15.6-2.1
			c-2.7-1.4-4.5-4-5.2-7.6c-0.3-1.6-0.5-4.9-0.5-8.7C815.8,1963.3,816.2,1960.7,817.3,1958.1z M822.4,1981.3
			c1.6,1.3,3.6,1.9,7.4,2.1c1,0.1,1,0.1,9.1,0.1c9.4,0,9.4,0,12-0.4c3.1-0.5,5-1.6,5.9-3.6c0.8-1.8,1-3.6,1-9.4
			c0-7.9-0.4-10.1-2.2-11.6c-1.6-1.3-3.6-1.9-7.4-2.1c-1-0.1-1-0.1-9.2-0.1c-9.3,0-9.3,0-11.9,0.4c-3.1,0.5-5,1.6-5.9,3.6
			c-0.8,1.8-1,3.6-1,9.4C820.3,1977.6,820.7,1979.8,822.4,1981.3z"/>
		<path d="M861.8,1939.4v4.9h-45.5v-4.9H861.8z"/>
		<path d="M828.6,1905.8c-3.3,0-4.6,0.2-5.9,0.9c-2,1.2-2.5,3.2-2.5,9c0,6.8,0.4,9,2,10.4c1.2,1,3.1,1.6,6,1.6c4.1,0,6.1-0.9,7-3.1
			c0.5-1.4,0.6-1.8,1-9c0.4-8,0.9-10.4,2.5-12.4c1.8-2.3,4.6-3.1,10.1-3.1c6.2,0,9.5,1,11.2,3.6c1.6,2.5,2.1,5.5,2.1,14.4
			c0,6.1-0.3,8.1-1.8,10.6c-1,1.7-3.2,3.1-5.5,3.5c-2,0.4-3.3,0.5-7.2,0.6v-4.9c4.9-0.1,5.8-0.1,7.4-1c2.3-1.2,2.7-2.6,2.7-10.4
			c0-10.5-1-11.6-9.4-11.6c-3.8,0-5.6,0.7-6.4,2.7c-0.5,1.2-0.5,1.2-1,9.2c-0.4,8.1-0.5,8.7-1.6,10.8c-1.8,3.5-4.9,4.9-10.6,4.9
			c-5.3,0-8.5-1-10.3-3.3c-2-2.5-2.7-5.6-2.7-13c0-8.2,0.9-11.5,3.7-13.5c1.9-1.4,4.2-1.9,8.3-1.9h0.8V1905.8z"/>
		<path d="M861.8,1829.9v4.9h-36.4h-2.7h-1.4l-1.4-0.1v0.1c0.7,0.2,1.2,0.4,1.7,0.6c0.6,0.3,0.8,0.3,2.5,1l37.6,14.8v4.9l-37.1,14.8
			l-2.1,0.8l-1.1,0.4l-1,0.4v0.1l1.2-0.1h1.3h2.5h36.4v4.9h-45.5v-8.5l29.4-11.6l4.7-1.8l2.4-0.9l2.4-0.9v-0.1l-2.4-0.9l-2.4-0.9
			l-4.7-1.8l-29.4-11.5v-8.6H861.8z"/>
		<path d="M852.2,1816.2l9.6,3.3v5.2l-45.5-15.9v-6.9l45.5-16.2v5.1l-9.6,3.4V1816.2z M820.5,1805.3l27.6,9.5v-19.1L820.5,1805.3z"
			/>
		<path d="M816.3,1781.3v-20.6c0-9.3,3.5-12.7,13.1-12.7c8.2,0,11,1.7,12,7.5h0.1c0.3-4.5,3.4-7,8.8-6.9h11.5v4.9h-10.4
			c-5.8-0.1-8.1,2.3-7.9,8.2v14.8h18.3v4.9H816.3z M839.1,1762.3c0-7.2-2-9.4-8.1-9.4c-4.7,0-6.7,0.3-8,1.2c-1.5,1-2.2,3.1-2.2,6.6
			v15.8h18.3V1762.3z"/>
		<path d="M846.6,1707c8.1,0,9.7,0.3,12.1,2.1c2.3,1.8,3.3,4.8,3.5,10.3c0.1,1.6,0.1,4.2,0.1,6.5c0,6.1-0.5,8.6-2.5,11.3
			c-1.4,2-4.4,3.6-7.7,4c-2.7,0.4-8.3,0.7-13,0.7c-9.9,0-11,0-13.5-0.5c-4.6-0.7-8.1-4-9.1-8.8c-0.5-2.4-0.7-5.3-0.7-11.1
			c0-5.5,0.3-7.5,1.6-9.7c1.3-2.3,4-3.8,7.2-4.1c1.4-0.1,2.3-0.2,5.5-0.3v4.9c-4.8,0.1-6.2,0.3-7.6,1c-1.8,1.1-2.4,3-2.4,8.3
			c0,6.1,0.3,10,1,11.5c1.3,2.7,3.7,3.6,10.8,3.6c25.6,0,25.8-0.1,25.8-12c0-11.7-0.9-13-8.7-13h-2.6V1707z"/>
		<path d="M836.1,1696.1v-22h4.3v22h16.9v-23h4.4v27.9h-45.5v-27.9h4.4v23H836.1z"/>
		<path d="M852.2,1660.4l9.6,3.3v5.2l-45.5-15.9v-6.9l45.5-16.2v5.1l-9.6,3.4V1660.4z M820.5,1649.5l27.6,9.5v-19.1L820.5,1649.5z"
			/>
		<path d="M816.3,1591.8h31.8c5.5,0,7.8,0.5,10,2.2c3.2,2.5,4.1,5.7,4.1,15.3c0,5.8-0.3,8.2-1.2,10.4c-1.9,4.9-5,6.4-12.9,6.4h-31.8
			v-4.9h31.8c3.6,0,5.5-0.3,6.7-0.9c2.3-1.3,3-3.8,3-10.8c0-11.6-1-12.9-9.7-12.9h-31.8V1591.8z"/>
	</g>
	<g>
		<g>
			<line class="st1" x1="971.4" y1="2181.8" x2="971.4" y2="2122.5"/>
			<rect x="968.1" y="2122.5" class="st4" width="6.6" height="59.3"/>
			<path class="st4" d="M932,2143.3c-2.9,0-5.3-2.3-5.3-5s2.4-5,5.3-5c2.9,0,5.3,2.3,5.3,5S934.8,2143.3,932,2143.3"/>
			<path class="st4" d="M932,2157.3c-2.9,0-5.3-2.3-5.3-5s2.4-5,5.3-5c2.9,0,5.3,2.3,5.3,5S934.8,2157.3,932,2157.3"/>
			<path class="st4" d="M932,2171.3c-2.9,0-5.3-2.3-5.3-5s2.4-5,5.3-5c2.9,0,5.3,2.3,5.3,5S934.8,2171.3,932,2171.3"/>
			<path class="st4" d="M964.8,2129.2v46.3h-0.6l-66.3,11.3l-0.9-5l8.7-1.5c-0.3-1.4-0.6-2.3-1.2-3.7c-0.2-0.6-0.4-1.2-0.7-1.9
				c-0.6-0.9-0.9-1.4-1.2-1.9c-0.4-0.7-0.6-1-1.9-2.3l-0.3-0.3c0,0-0.1-0.1-0.2-0.2l0,0l-1.7-1.8c-0.4-0.5-1-1-1.7-1.5l0.1-0.2
				l-0.3-0.4c2.2-1.8,3.5-3.6,3.5-3.6l0.3-0.3c1.2-1.2,1.4-1.5,1.9-2.3c0.3-0.5,0.6-1,1.2-1.9c0.8-2.1,0.8-2.8,1-4.3
				c0.1-0.6,0.1-1.3,0.2-2.1c-0.2-2.7-0.5-3.4-1.4-5.6l-0.3-0.7l-0.8-1.2c-0.8-1.1-1-1.3-1.9-3.1c-0.5-0.5-1.9-1.8-3.7-3.3l0.6-0.7
				l-0.1-0.1c0.1-0.1,0.3-0.2,0.3-0.2l2.6-2.8c0.1,0,0.1,0.1,0.1,0.1c0.1-0.1,0.1-0.1,0.1-0.1l0.4-0.4c1.2-1.1,1.3-1.5,1.7-2.3
				c0.3-0.6,0.6-1.3,1.3-2.3c0.3-0.7,0.5-1.3,0.7-1.9c0.4-1.2,0.8-2,1-3l-8.5-1.5l1-5l65.6,11.7l-0.1,0.2h1.5V2129.2z M959.5,2171
				v-37.6l-48.8-8.7c-0.4,1.4-0.8,2.5-1.3,3.9c-0.3,0.6-0.5,1.3-0.8,2.1l-0.3,0.6c-0.6,0.9-0.9,1.4-1.2,2c-0.6,1.2-1.1,2.1-2.6,3.6
				c-0.1,0.1-0.3,0.3-0.4,0.6c0.2,0.2,0.3,0.2,0.3,0.2l0.4,0.6c1.1,1.8,1.2,1.9,1.9,2.9l1.3,1.9l0.4,0.9c1.1,2.7,1.5,3.7,1.7,7.1
				h0.1c0,0.2-0.1,0.3-0.1,0.5c0,0.4,0.1,0.9,0.1,1.3h-0.3c-0.1,0.4-0.1,0.8-0.1,1.1c-0.1,1.9-0.3,3-1.3,5.9l-0.3,0.6
				c-0.6,0.8-0.9,1.3-1.1,1.8c-0.6,1-1,1.8-2.6,3.3c-0.1,0.1-0.3,0.3-0.4,0.6c0.3,0.3,0.5,0.6,0.6,0.7c1.6,1.5,2.1,2.3,2.6,3.3
				c0.3,0.4,0.6,1,1.1,1.8l0.3,0.6c0.3,0.9,0.6,1.5,0.8,2.1c0.6,1.7,1.1,2.8,1.5,4.7L959.5,2171z"/>
		</g>
		<g>
			<polygon class="st4" points="975.2,1862.9 975.2,1936.8 899.9,1900.2 			"/>
			<path class="st4" d="M978.5,1857.7v84.2l-85.7-41.7L978.5,1857.7z M972,1931.8V1868l-64.9,32.2L972,1931.8z"/>
			<polygon class="st4" points="965.4,1950.6 957.4,1953.9 936.8,1909.8 916.3,1953.9 908.4,1950.6 932.1,1899.6 908.7,1849.5 
				916.7,1846.1 936.8,1889.4 957,1846.1 965,1849.5 941.6,1899.6 			"/>
		</g>
		<g>
			<path class="st4" d="M979.4,1993.6v84h-87.5v-84L979.4,1993.6L979.4,1993.6z M972.4,2071v-70.7h-73.6v70.7H972.4z M969.5,2035.8
				c0,18-15.4,32.6-34.2,32.6s-34.2-14.7-34.2-32.6c0-18,15.4-32.6,34.2-32.6S969.5,2017.7,969.5,2035.8 M908.1,2035.8
				c0,14.4,12.2,26,27.2,26s27.2-11.7,27.2-26c0-14.4-12.2-26-27.2-26S908.1,2021.4,908.1,2035.8"/>
		</g>
		<g>
			<path class="st4" d="M979.4,1748.8c0,23.1-19.7,41.8-43.7,41.8c-24.2,0-43.7-18.8-43.7-41.8s19.7-41.8,43.7-41.8
				C959.8,1707,979.4,1725.8,979.4,1748.8 M898.8,1748.8c0,19.4,16.5,35.2,36.8,35.2s36.8-15.8,36.8-35.2s-16.5-35.2-36.8-35.2
				C915.3,1713.6,898.8,1729.4,898.8,1748.8"/>
			<polygon class="st4" points="965.8,1802.8 957.3,1806.4 935.4,1759.4 913.5,1806.4 905.1,1802.8 930.4,1748.6 905.5,1695.2 
				913.9,1691.5 935.4,1737.7 956.9,1691.5 965.4,1695.2 940.5,1748.6 			"/>
		</g>
		<g>
			<path class="st4" d="M975.4,1558v93.9l-3.8-0.7c-3.5-0.7-33.9-6.9-41.5-17.1c-5.8-7.7-5.6-16-5.5-16.4v-47.5l-22.3,2.6v55.4h-6.4
				v-60.8L975.4,1558z M969,1644.3v-79.4l-38.1,4.5v48.3c0,0.1-0.1,6.8,4.4,12.8C939.8,1636.6,958.6,1642,969,1644.3"/>
			<path class="st4" d="M949.5,1608.4c-3.5,0-6.3-2.7-6.3-6s2.8-6,6.3-6s6.3,2.7,6.3,6C955.7,1605.7,953,1608.4,949.5,1608.4"/>
		</g>
	</g>
</g>
</svg>
