<?xml version="1.0" encoding="utf-8"?>
<!-- Generator: Adobe Illustrator 25.4.0, SVG Export Plug-In . SVG Version: 6.00 Build 0)  -->
<svg version="1.1" id="Calque_1" xmlns="http://www.w3.org/2000/svg" xmlns:xlink="http://www.w3.org/1999/xlink" x="0px" y="0px"
	 viewBox="0 0 4000 4000" style="enable-background:new 0 0 4000 4000;" xml:space="preserve">
<style type="text/css">
	.st0{fill:#DA8031;}
	.st1{fill:none;}
	.st2{fill:#FFFFFF;}
	.st3{font-family:'EurostileExt-Bla';}
	.st4{font-size:1125.1527px;}
	.st5{font-family:'Eurostile-Reg';}
	.st6{font-size:106.0952px;}
	.st7{fill:#020000;}
</style>
<g>
	<rect x="18.5" class="st0" width="3963" height="3350.1"/>
	<rect x="390.6" y="2476.5" class="st1" width="3218.8" height="755.5"/>
	<text transform="matrix(3.464102e-07 -1 1 3.464102e-07 3637.1501 3278.6572)" class="st2 st3 st4">E01</text>
	<text transform="matrix(1 0 0 1 70.3309 3493.2104)" class="st5 st6">ANTOINE DESROCHERS</text>
	<text transform="matrix(1 0 0 1 70.8604 3619.7795)" class="st5 st6">NADIA LOUIS-DESMARCHAIS</text>
	<g>
		<g>
			<line class="st1" x1="78.9" y1="3821.8" x2="175.6" y2="3821.8"/>
			<rect x="78.9" y="3816.7" class="st7" width="96.7" height="10.2"/>
			<path class="st7" d="M141.7,3760.3c0-4.5,3.7-8.2,8.2-8.2s8.2,3.7,8.2,8.2s-3.7,8.2-8.2,8.2
				C145.4,3768.6,141.7,3764.9,141.7,3760.3"/>
			<path class="st7" d="M118.9,3760.3c0-4.5,3.7-8.2,8.2-8.2s8.2,3.7,8.2,8.2s-3.7,8.2-8.2,8.2S118.9,3764.9,118.9,3760.3"/>
			<path class="st7" d="M96.1,3760.3c0-4.5,3.7-8.2,8.2-8.2c4.5,0,8.2,3.7,8.2,8.2s-3.7,8.2-8.2,8.2S96.1,3764.9,96.1,3760.3"/>
			<path class="st7" d="M164.6,3811.6H89.3v-1l-18.4-103.2l8.2-1.4l2.4,13.6c2.3-0.5,3.8-1,6.1-1.9c0.9-0.3,1.9-0.7,3.1-1.1
				c1.4-0.9,2.3-1.4,3.1-1.9c1.2-0.6,1.7-0.9,3.7-2.9l0.5-0.4c0,0,0.1-0.1,0.4-0.3l0,0l3-2.6c0.8-0.7,1.6-1.6,2.4-2.5l0.3,0.2
				l0.6-0.5c2.9,3.4,5.8,5.5,5.8,5.5l0.5,0.5c2,1.9,2.5,2.2,3.7,2.9c0.8,0.4,1.7,0.9,3.1,1.8c3.5,1.2,4.5,1.3,7,1.5
				c1,0.1,2.1,0.2,3.5,0.3c4.4-0.3,5.5-0.8,9.2-2.2l1.1-0.4l1.9-1.3c1.8-1.2,2.2-1.5,5-3c0.8-0.8,3-3,5.4-5.8l1.2,1l0.1-0.1
				c0.1,0.2,0.3,0.4,0.4,0.5l4.6,4c0,0.1-0.1,0.1-0.1,0.2c0.1,0.1,0.1,0.1,0.1,0.1l0.7,0.6c1.8,1.8,2.4,2.1,3.8,2.7
				c1,0.4,2.1,1,3.7,2.1c1.2,0.4,2.2,0.8,3.1,1.1c1.9,0.7,3.2,1.2,4.9,1.6l2.5-13.2l8.2,1.5l-19,102.1l-0.4-0.1L164.6,3811.6
				L164.6,3811.6z M96.4,3803.3h61.3l14.1-75.9c-2.3-0.5-4-1.2-6.3-2c-1-0.4-2.1-0.8-3.4-1.3l-0.9-0.5c-1.4-0.9-2.3-1.4-3.2-1.8
				c-1.9-0.9-3.4-1.7-5.8-4c-0.2-0.2-0.5-0.4-0.9-0.7c-0.3,0.3-0.4,0.4-0.4,0.4l-0.9,0.6c-3,1.7-3.1,1.8-4.8,2.9l-3.1,2l-1.5,0.6
				c-4.4,1.7-6.1,2.3-11.6,2.7l0,0.1c-0.3,0-0.5-0.1-0.8-0.1c-0.7,0-1.4,0.1-2.1,0.1l0-0.4c-0.7-0.1-1.3-0.1-1.8-0.1
				c-3.1-0.2-4.9-0.4-9.6-2.1l-0.9-0.5c-1.3-0.9-2.2-1.4-2.9-1.7c-1.7-0.9-2.9-1.6-5.4-4.1c-0.2-0.2-0.5-0.4-0.9-0.7
				c-0.5,0.5-1,0.8-1.2,1c-2.5,2.5-3.7,3.2-5.4,4.1c-0.7,0.4-1.6,0.9-2.9,1.7l-0.9,0.5c-1.4,0.5-2.5,0.9-3.5,1.3
				c-2.7,1-4.6,1.7-7.6,2.3L96.4,3803.3z"/>
		</g>
		<g>
			<polygon class="st7" points="598.8,3827.7 478.2,3827.7 538,3710.5 			"/>
			<path class="st7" d="M607.2,3832.8H470l68-133.4L607.2,3832.8z M486.5,3822.6h104l-52.5-101L486.5,3822.6z"/>
			<polygon class="st7" points="455.9,3812.3 450.4,3800 522.3,3768 450.4,3736 455.9,3723.7 538.9,3760.6 620.6,3724.2 
				626.1,3736.6 555.5,3768 626.1,3799.4 620.6,3811.8 538.9,3775.4 			"/>
		</g>
		<g>
			<path class="st7" d="M385.7,3834.3h-137V3698h137V3834.3z M259.5,3823.4h115.3v-114.6H259.5V3823.4z M317,3818.8
				c-29.3,0-53.2-23.9-53.2-53.2c0-29.3,23.9-53.2,53.2-53.2c29.3,0,53.2,23.9,53.2,53.2S346.4,3818.8,317,3818.8 M317,3723.3
				c-23.3,0-42.3,19-42.3,42.3c0,23.4,19,42.4,42.3,42.4c23.4,0,42.4-19,42.4-42.4C359.4,3742.3,340.4,3723.3,317,3723.3"/>
		</g>
		<g>
			<path class="st7" d="M784.7,3834.3c-37.6,0-68.2-30.6-68.2-68.1c0-37.6,30.6-68.1,68.2-68.1s68.2,30.6,68.2,68.1
				C852.9,3803.7,822.3,3834.3,784.7,3834.3 M784.7,3708.8c-31.6,0-57.3,25.7-57.3,57.3s25.7,57.3,57.3,57.3s57.3-25.7,57.3-57.3
				C842.1,3734.5,816.3,3708.8,784.7,3708.8"/>
			<polygon class="st7" points="696.7,3813.1 690.8,3799.9 767.4,3765.8 690.8,3731.7 696.7,3718.6 785.1,3757.9 872.2,3719.1 
				878.1,3732.3 802.8,3765.8 878.1,3799.3 872.2,3812.5 785.1,3773.7 			"/>
		</g>
		<g>
			<path class="st7" d="M1095.8,3828h-153l1.2-5.9c1.1-5.4,11.2-52.8,27.8-64.6c12.6-9,26.1-8.7,26.7-8.6h77.4l-4.3-34.7h-90.3v-9.9
				h99.1L1095.8,3828z M955,3818.1h129.5l-7.4-59.3h-78.8c-0.2,0-11.1-0.2-20.8,6.8C967.6,3772.6,958.9,3801.9,955,3818.1"/>
			<path class="st7" d="M1013.6,3787.6c0-5.4,4.4-9.8,9.8-9.8c5.4,0,9.8,4.4,9.8,9.8c0,5.4-4.4,9.8-9.8,9.8
				C1018,3797.4,1013.6,3793,1013.6,3787.6"/>
		</g>
	</g>
</g>
</svg>
