<?xml version="1.0" encoding="utf-8"?>
<!-- Generator: Adobe Illustrator 25.4.1, SVG Export Plug-In . SVG Version: 6.00 Build 0)  -->
<svg version="1.1" id="Calque_1" xmlns="http://www.w3.org/2000/svg" xmlns:xlink="http://www.w3.org/1999/xlink" x="0px" y="0px"
	 viewBox="0 0 4000 4000" style="enable-background:new 0 0 4000 4000;" xml:space="preserve">
<style type="text/css">
	.st0{fill:#DA8031;}
	.st1{fill:none;}
	.st2{enable-background:new    ;}
	.st3{fill:#FFFFFF;}
	.st4{fill:#020000;}
</style>
<g>
	<rect x="18.5" class="st0" width="3963" height="3350.1"/>
	<rect x="390.6" y="2476.5" class="st1" width="3218.8" height="755.5"/>
	<g class="st2">
		<path class="st3" d="M2886.7,2349.3h169.9l0,606.5H3186v-571.6h148.5v571.6h132.8v-614.3h169.9v839.4h-750.5V2349.3z"/>
		<path class="st3" d="M2939.6,1346.8c47.3-58.5,126-77.6,318.4-77.6c196.9,0,272.3,15.8,320.7,67.5c50.6,54,64.1,132.8,64.1,382.6
			c0,318.4-7.9,370.2-66.4,423.1c-51.8,46.1-122.6,59.6-316.2,59.6c-192.4,0-275.7-21.4-322.9-85.5
			c-41.6-55.1-56.3-158.6-56.3-388.2C2881,1490.8,2894.5,1401.9,2939.6,1346.8z M3269.2,1987c184.5,0,195.8-14.6,195.8-257.7
			c0-124.9-9-182.3-32.6-210.4c-24.8-29.3-55.1-34.9-178.9-34.9c-186.8,0-198,13.5-198,252C3055.4,1971.2,3068.9,1987,3269.2,1987z"
			/>
		<path class="st3" d="M3061.1,675.1l190.1,272.3l-150.8,101.3l-213.8-319.5V456.8h750.5l0,218.3H3061.1z"/>
	</g>
	<g class="st2">
		<path d="M84.8,3478.3l-5.4,15h-8.5l25.9-70.8H108l26.4,70.8H126l-5.5-15H84.8z M102.5,3428.9l-15.5,43h31.2L102.5,3428.9z"/>
		<path d="M202,3493.2h-13l-29.7-48.2l-4.8-8l-2.4-3.9l-2.3-3.9h-0.2l0.1,2.7v2.7v5.3v53.4h-8v-70.8h13l25.8,42.2l6.8,11l3.4,5.5
			l3.3,5.5h0.2l-0.1-2.7v-2.7v-5.3v-53.7h8V3493.2z"/>
		<path d="M241.4,3493.2h-8v-63.3h-23v-7.4h53.9v7.5l-22.9-0.1V3493.2z"/>
		<path d="M319.2,3424c6,2.5,9.2,7.7,10.5,16.9c0.3,3.2,0.4,4.9,0.4,13.9c0,16.6-0.1,19-1.3,24.4c-1.3,6.3-4.4,10.3-9.4,12.4
			c-4.5,1.9-8.1,2.3-18.5,2.3c-12.4,0-15.8-0.4-20.4-2.3c-5.1-2.2-8.1-6.2-9.4-12.4c-1.2-5.5-1.3-7.8-1.3-24.3
			c0-14.7,0.6-18.9,3.5-24.3c2.3-4.2,6.5-7,12.4-8.2c2.5-0.4,8.1-0.7,14.2-0.7C310.8,3421.7,315.1,3422.2,319.2,3424z M281.5,3432
			c-2.1,2.4-3.1,5.6-3.5,11.6c-0.1,1.5-0.1,1.5-0.1,14.2c0,14.6,0,14.6,0.6,18.7c0.7,4.9,2.7,7.9,5.9,9.1c2.9,1.2,5.8,1.5,15.3,1.5
			c12.9,0,16.4-0.6,18.9-3.4c2.1-2.4,3.1-5.6,3.5-11.6c0.1-1.5,0.1-1.5,0.1-14.3c0-14.5,0-14.5-0.6-18.6c-0.7-4.9-2.7-7.9-5.9-9.1
			c-2.9-1.2-5.9-1.5-15.3-1.5C287.4,3428.6,283.9,3429.2,281.5,3432z"/>
		<path d="M349.7,3493.2h-8v-70.8h8V3493.2z"/>
		<path d="M423.4,3493.2h-13l-29.7-48.2l-4.8-8l-2.4-3.9l-2.3-3.9h-0.2l0.1,2.7v2.7v5.3v53.4h-8v-70.8h13l25.8,42.2l6.8,11l3.4,5.5
			l3.3,5.5h0.2l-0.1-2.7v-2.7v-5.3v-53.7h8V3493.2z"/>
		<path d="M444.8,3453.3h35.9v6.7h-35.9v26.3h37.5v6.9h-45.4v-70.8h45.4v6.9h-37.5V3453.3z"/>
		<path d="M519.1,3422.4h32.7c10.3,0,16,1.8,19.8,6.2c4.7,5.4,6.2,11.7,6.2,26.2c0,17.3-0.7,23.1-3.5,28.2c-2.8,5-6.4,7.7-12.1,9
			c-3.2,0.7-6.4,1.2-8.4,1.2h-34.7V3422.4z M550.1,3486.3c7.7,0,13.3-1.6,15.7-4.5c3.1-3.8,4-9,4-22.6c0-17.1-0.6-21.1-3.7-25.2
			c-2.5-3.4-6.6-4.7-14.3-4.7h-24.7v57H550.1z"/>
		<path d="M596.7,3453.3h35.9v6.7h-35.9v26.3h37.5v6.9h-45.4v-70.8h45.4v6.9h-37.5V3453.3z"/>
		<path d="M685.9,3441.6c0-5.2-0.3-7.2-1.5-9.1c-1.9-3.1-5.2-3.9-14.7-3.9c-11,0-14.7,0.6-17,3.2c-1.7,1.9-2.5,4.9-2.5,9.3
			c0,6.4,1.5,9.5,5.1,10.9c2.3,0.8,2.9,1,14.6,1.5c13,0.6,17,1.4,20.2,3.9c3.7,2.9,5.1,7.2,5.1,15.7c0,9.7-1.7,14.7-5.9,17.5
			c-4,2.5-9,3.3-23.4,3.3c-9.9,0-13.2-0.5-17.3-2.9c-2.8-1.6-5-5-5.7-8.6c-0.6-3.1-0.8-5.1-1-11.1h8c0.1,7.6,0.2,9,1.6,11.6
			c1.9,3.6,4.2,4.1,17,4.1c17.1,0,18.9-1.5,18.9-14.6c0-5.9-1.2-8.7-4.4-10c-2-0.8-2-0.8-15-1.6c-13.2-0.6-14.1-0.8-17.6-2.4
			c-5.7-2.9-8.1-7.6-8.1-16.6c0-8.3,1.7-13.3,5.3-16c4-3.2,9.1-4.1,21.2-4.1c13.4,0,18.8,1.4,22.1,5.8c2.2,3,3.1,6.6,3.1,12.9v1.2
			H685.9z"/>
		<path d="M705.6,3422.4h33.6c15.2,0,20.7,5.4,20.7,20.4c0,12.8-2.8,17.1-12.2,18.7v0.1c7.3,0.4,11.4,5.3,11.2,13.7v17.9h-8v-16.1
			c0.2-9-3.8-12.6-13.4-12.3h-24.1v28.4h-8V3422.4z M736.6,3457.9c11.7,0,15.4-3.1,15.4-12.6c0-7.3-0.4-10.4-1.9-12.4
			c-1.6-2.3-5.1-3.5-10.7-3.5h-25.8v28.5H736.6z"/>
		<path d="M819.1,3424c6,2.5,9.2,7.7,10.5,16.9c0.3,3.2,0.4,4.9,0.4,13.9c0,16.6-0.1,19-1.3,24.4c-1.3,6.3-4.4,10.3-9.4,12.4
			c-4.5,1.9-8.1,2.3-18.5,2.3c-12.4,0-15.8-0.4-20.4-2.3c-5.1-2.2-8.1-6.2-9.4-12.4c-1.2-5.5-1.3-7.8-1.3-24.3
			c0-14.7,0.6-18.9,3.5-24.3c2.3-4.2,6.5-7,12.4-8.2c2.5-0.4,8.1-0.7,14.2-0.7C810.8,3421.7,815,3422.2,819.1,3424z M781.4,3432
			c-2.1,2.4-3.1,5.6-3.5,11.6c-0.1,1.5-0.1,1.5-0.1,14.2c0,14.6,0,14.6,0.6,18.7c0.7,4.9,2.7,7.9,5.9,9.1c2.9,1.2,5.8,1.5,15.3,1.5
			c12.9,0,16.4-0.6,18.9-3.4c2.1-2.4,3.1-5.6,3.5-11.6c0.1-1.5,0.1-1.5,0.1-14.3c0-14.5,0-14.5-0.6-18.6c-0.7-4.9-2.7-7.9-5.9-9.1
			c-2.9-1.2-5.9-1.5-15.3-1.5C787.3,3428.6,783.8,3429.2,781.4,3432z"/>
		<path d="M896.7,3469.6c0,12.6-0.4,15.2-3.4,18.9c-2.9,3.6-7.7,5.1-16.9,5.4c-2.7,0.1-6.9,0.1-10.6,0.1c-10,0-14-0.8-18.5-3.8
			c-3.3-2.2-5.8-6.9-6.6-12c-0.6-4.2-1.2-12.9-1.2-20.3c0-15.5,0-17.1,0.7-21c1.2-7.2,6.6-12.6,14.3-14.1c3.9-0.7,8.6-1.1,18.1-1.1
			c8.9,0,12.2,0.5,15.8,2.5c3.7,2,6.2,6.2,6.7,11.2c0.2,2.2,0.3,3.6,0.5,8.6h-8c-0.1-7.5-0.4-9.7-1.7-11.9
			c-1.8-2.9-4.9-3.7-13.6-3.7c-9.9,0-16.2,0.5-18.8,1.6c-4.5,2-5.8,5.8-5.8,16.8c0,39.9,0.1,40.2,19.6,40.2
			c19.1,0,21.2-1.4,21.2-13.5v-4H896.7z"/>
		<path d="M963.7,3493.2h-8v-32.9h-41.4v32.9h-8v-70.8h8v31.2h41.4v-31.2h8V3493.2z"/>
		<path d="M985.2,3453.3h35.9v6.7h-35.9v26.3h37.5v6.9h-45.4v-70.8h45.4v6.9h-37.5V3453.3z"/>
		<path d="M1032.9,3422.4h33.6c15.2,0,20.7,5.4,20.7,20.4c0,12.8-2.8,17.1-12.2,18.7v0.1c7.3,0.4,11.4,5.3,11.2,13.7v17.9h-8v-16.1
			c0.2-9-3.8-12.6-13.4-12.3h-24.1v28.4h-8V3422.4z M1063.9,3457.9c11.7,0,15.4-3.1,15.4-12.6c0-7.3-0.4-10.4-1.9-12.4
			c-1.6-2.3-5.1-3.5-10.7-3.5h-25.8v28.5H1063.9z"/>
		<path d="M1140.5,3441.6c0-5.2-0.3-7.2-1.5-9.1c-1.9-3.1-5.2-3.9-14.7-3.9c-11,0-14.7,0.6-17,3.2c-1.7,1.9-2.5,4.9-2.5,9.3
			c0,6.4,1.5,9.5,5.1,10.9c2.3,0.8,2.9,1,14.6,1.5c13,0.6,17,1.4,20.2,3.9c3.7,2.9,5.1,7.2,5.1,15.7c0,9.7-1.7,14.7-5.9,17.5
			c-4,2.5-9,3.3-23.4,3.3c-9.9,0-13.2-0.5-17.3-2.9c-2.8-1.6-5-5-5.7-8.6c-0.6-3.1-0.8-5.1-1-11.1h8c0.1,7.6,0.2,9,1.6,11.6
			c1.9,3.6,4.2,4.1,17,4.1c17.1,0,18.9-1.5,18.9-14.6c0-5.9-1.2-8.7-4.3-10c-2-0.8-2-0.8-15-1.6c-13.2-0.6-14.1-0.8-17.6-2.4
			c-5.7-2.9-8.1-7.6-8.1-16.6c0-8.3,1.7-13.3,5.3-16c4-3.2,9.1-4.1,21.2-4.1c13.4,0,18.8,1.4,22.1,5.8c2.2,3,3.1,6.6,3.1,12.9v1.2
			H1140.5z"/>
	</g>
	<g class="st2">
		<path d="M137.9,3619.8h-13l-29.7-48.2l-4.8-8l-2.4-3.9l-2.3-3.9h-0.2l0.1,2.7v2.7v5.3v53.4h-8V3549h13l25.8,42.2l6.8,11l3.4,5.5
			l3.3,5.5h0.2l-0.1-2.7v-2.7v-5.3V3549h8V3619.8z"/>
		<path d="M160.3,3604.8l-5.4,15h-8.5l25.9-70.8h11.2l26.4,70.8h-8.4l-5.5-15H160.3z M178,3555.5l-15.5,43h31.2L178,3555.5z"/>
		<path d="M217.2,3549h32.7c10.3,0,16,1.8,19.8,6.2c4.7,5.4,6.2,11.7,6.2,26.2c0,17.3-0.7,23.1-3.5,28.2c-2.8,5-6.4,7.7-12.1,9
			c-3.2,0.7-6.4,1.2-8.4,1.2h-34.7V3549z M248.1,3612.9c7.7,0,13.3-1.6,15.7-4.5c3.1-3.8,4-9,4-22.6c0-17.1-0.6-21.1-3.7-25.2
			c-2.5-3.4-6.6-4.7-14.3-4.7h-24.7v57H248.1z"/>
		<path d="M295,3619.8h-8V3549h8V3619.8z"/>
		<path d="M317.3,3604.8l-5.4,15h-8.5l25.9-70.8h11.2l26.4,70.8h-8.4l-5.5-15H317.3z M335,3555.5l-15.5,43h31.2L335,3555.5z"/>
		<path d="M408.7,3612.4h36.4v7.4h-44.3V3549h8V3612.4z"/>
		<path d="M500.1,3550.6c6,2.5,9.2,7.7,10.5,16.9c0.3,3.2,0.4,4.9,0.4,13.9c0,16.6-0.1,19-1.3,24.4c-1.3,6.3-4.4,10.3-9.4,12.4
			c-4.5,1.9-8.1,2.3-18.5,2.3c-12.4,0-15.8-0.4-20.4-2.3c-5.1-2.2-8.1-6.2-9.4-12.4c-1.2-5.5-1.3-7.9-1.3-24.3
			c0-14.7,0.6-18.9,3.5-24.3c2.3-4.2,6.5-7,12.4-8.2c2.5-0.4,8.1-0.7,14.2-0.7C491.7,3548.3,496,3548.8,500.1,3550.6z M462.3,3558.6
			c-2.1,2.4-3.1,5.6-3.5,11.6c-0.1,1.5-0.1,1.5-0.1,14.2c0,14.6,0,14.6,0.6,18.7c0.7,4.9,2.7,7.9,5.9,9.1c2.9,1.2,5.8,1.5,15.3,1.5
			c12.9,0,16.4-0.6,18.9-3.4c2.1-2.4,3.1-5.6,3.5-11.6c0.1-1.5,0.1-1.5,0.1-14.3c0-14.5,0-14.5-0.6-18.6c-0.7-4.9-2.7-7.9-5.9-9.1
			c-2.9-1.2-5.9-1.5-15.3-1.5C468.3,3555.2,464.8,3555.8,462.3,3558.6z"/>
		<path d="M578.3,3549v49.5c0,8.5-0.8,12.1-3.6,15.6c-4.1,5-9.3,6.4-24.9,6.4c-9.4,0-13.4-0.4-17-1.8c-8.1-3-10.5-7.7-10.5-20.2
			V3549h8v49.5c0,5.6,0.4,8.6,1.5,10.4c2.1,3.6,6.3,4.7,17.6,4.7c18.9,0,21-1.6,21-15.1V3549H578.3z"/>
		<path d="M599.3,3619.8h-8V3549h8V3619.8z"/>
		<path d="M654.1,3568.2c0-5.2-0.3-7.2-1.5-9.1c-1.9-3.1-5.2-3.9-14.7-3.9c-11,0-14.7,0.6-17,3.2c-1.7,1.9-2.5,4.9-2.5,9.3
			c0,6.4,1.5,9.5,5.1,10.9c2.3,0.8,2.9,1,14.6,1.5c13,0.6,17,1.4,20.2,3.9c3.7,2.9,5.1,7.2,5.1,15.7c0,9.7-1.7,14.7-5.9,17.5
			c-4,2.5-9,3.3-23.4,3.3c-9.9,0-13.2-0.5-17.3-2.9c-2.8-1.6-5-5-5.7-8.6c-0.6-3.1-0.8-5.1-1-11.1h8c0.1,7.6,0.2,9,1.6,11.6
			c1.9,3.6,4.2,4.1,17,4.1c17.1,0,18.9-1.5,18.9-14.6c0-5.9-1.2-8.7-4.4-10c-2-0.8-2-0.8-15-1.6c-13.2-0.6-14.1-0.8-17.6-2.4
			c-5.7-2.9-8.1-7.6-8.1-16.6c0-8.3,1.7-13.3,5.3-16c4-3.2,9.1-4.1,21.2-4.1c13.4,0,18.8,1.4,22.1,5.8c2.2,3,3.1,6.6,3.1,12.9v1.2
			H654.1z"/>
		<path d="M692.8,3590.5v6.9h-22.1l0.1-6.9H692.8z"/>
		<path d="M699.5,3549h32.7c10.3,0,16,1.8,19.8,6.2c4.7,5.4,6.2,11.7,6.2,26.2c0,17.3-0.7,23.1-3.5,28.2c-2.8,5-6.4,7.7-12.1,9
			c-3.2,0.7-6.4,1.2-8.4,1.2h-34.7V3549z M730.4,3612.9c7.7,0,13.3-1.6,15.7-4.5c3.1-3.8,4-9,4-22.6c0-17.1-0.6-21.1-3.7-25.2
			c-2.5-3.4-6.6-4.7-14.3-4.7h-24.7v57H730.4z"/>
		<path d="M777,3579.9h35.9v6.7H777v26.3h37.5v6.9h-45.4V3549h45.4v6.9H777V3579.9z"/>
		<path d="M866.2,3568.2c0-5.2-0.3-7.2-1.5-9.1c-1.9-3.1-5.2-3.9-14.7-3.9c-11,0-14.7,0.6-17,3.2c-1.7,1.9-2.5,4.9-2.5,9.3
			c0,6.4,1.5,9.5,5.1,10.9c2.3,0.8,2.9,1,14.6,1.5c13,0.6,17,1.4,20.2,3.9c3.7,2.9,5.1,7.2,5.1,15.7c0,9.7-1.7,14.7-5.9,17.5
			c-4,2.5-9,3.3-23.4,3.3c-9.9,0-13.2-0.5-17.3-2.9c-2.8-1.6-5-5-5.7-8.6c-0.6-3.1-0.8-5.1-1-11.1h8c0.1,7.6,0.2,9,1.6,11.6
			c1.9,3.6,4.2,4.1,17,4.1c17.1,0,18.9-1.5,18.9-14.6c0-5.9-1.2-8.7-4.4-10c-2-0.8-2-0.8-15-1.6c-13.2-0.6-14.1-0.8-17.6-2.4
			c-5.7-2.9-8.1-7.6-8.1-16.6c0-8.3,1.7-13.3,5.3-16c4-3.2,9.1-4.1,21.2-4.1c13.4,0,18.8,1.4,22.1,5.8c2.2,3,3.1,6.6,3.1,12.9v1.2
			H866.2z"/>
		<path d="M963.5,3619.8h-8v-56.7v-4.2v-2.1l0.1-2.1h-0.2c-0.3,1.1-0.6,1.8-1,2.7c-0.4,1-0.5,1.2-1.6,3.9l-24.1,58.6h-8.1
			l-24.1-57.8l-1.4-3.3l-0.6-1.7l-0.6-1.6h-0.2l0.1,1.9v2v3.8v56.7h-8V3549h13.8l18.9,45.8l3,7.3l1.5,3.7l1.5,3.7h0.2l1.5-3.7
			l1.5-3.7l3-7.3l18.8-45.8h14V3619.8z"/>
		<path d="M985.9,3604.8l-5.4,15H972l25.9-70.8h11.2l26.4,70.8h-8.4l-5.5-15H985.9z M1003.6,3555.5l-15.5,43h31.2L1003.6,3555.5z"/>
		<path d="M1042.8,3549h33.6c15.2,0,20.7,5.4,20.7,20.4c0,12.8-2.8,17.1-12.2,18.7v0.1c7.3,0.4,11.4,5.3,11.2,13.7v17.9h-8v-16.1
			c0.2-9-3.8-12.6-13.4-12.3h-24.1v28.4h-8V3549z M1073.8,3584.5c11.7,0,15.4-3.1,15.4-12.6c0-7.3-0.4-10.4-1.9-12.4
			c-1.6-2.3-5.1-3.5-10.7-3.5h-25.8v28.5H1073.8z"/>
		<path d="M1163.8,3596.1c0,12.6-0.4,15.2-3.4,18.9c-2.9,3.6-7.7,5.1-16.9,5.4c-2.7,0.1-6.9,0.1-10.6,0.1c-10,0-14-0.8-18.5-3.8
			c-3.3-2.2-5.8-6.9-6.6-12c-0.6-4.2-1.2-12.9-1.2-20.3c0-15.5,0-17.1,0.7-21c1.2-7.2,6.6-12.6,14.3-14.1c3.9-0.7,8.6-1.1,18.1-1.1
			c8.9,0,12.2,0.5,15.8,2.5c3.7,2,6.2,6.2,6.7,11.2c0.2,2.2,0.3,3.6,0.5,8.6h-8c-0.1-7.5-0.4-9.7-1.7-11.9
			c-1.8-2.9-4.9-3.7-13.6-3.7c-9.9,0-16.2,0.5-18.8,1.6c-4.5,2-5.8,5.8-5.8,16.8c0,39.9,0.1,40.2,19.6,40.2
			c19.1,0,21.2-1.4,21.2-13.5v-4H1163.8z"/>
		<path d="M1230.9,3619.8h-8v-32.9h-41.4v32.9h-8V3549h8v31.2h41.4V3549h8V3619.8z"/>
		<path d="M1253.3,3604.8l-5.4,15h-8.5l25.9-70.8h11.2l26.4,70.8h-8.4l-5.5-15H1253.3z M1271,3555.5l-15.5,43h31.2L1271,3555.5z"/>
		<path d="M1318.1,3619.8h-8V3549h8V3619.8z"/>
		<path d="M1372.8,3568.2c0-5.2-0.3-7.2-1.5-9.1c-1.9-3.1-5.2-3.9-14.7-3.9c-11,0-14.7,0.6-17,3.2c-1.7,1.9-2.5,4.9-2.5,9.3
			c0,6.4,1.5,9.5,5.1,10.9c2.3,0.8,2.9,1,14.6,1.5c13,0.6,17,1.4,20.2,3.9c3.7,2.9,5.1,7.2,5.1,15.7c0,9.7-1.7,14.7-5.9,17.5
			c-4,2.5-9,3.3-23.4,3.3c-9.9,0-13.2-0.5-17.3-2.9c-2.8-1.6-5-5-5.7-8.6c-0.6-3.1-0.8-5.1-1-11.1h8c0.1,7.6,0.2,9,1.6,11.6
			c1.9,3.6,4.2,4.1,17,4.1c17.1,0,18.9-1.5,18.9-14.6c0-5.9-1.2-8.7-4.3-10c-2-0.8-2-0.8-15-1.6c-13.2-0.6-14.1-0.8-17.6-2.4
			c-5.7-2.9-8.1-7.6-8.1-16.6c0-8.3,1.7-13.3,5.3-16c4-3.2,9.1-4.1,21.2-4.1c13.4,0,18.8,1.4,22.1,5.8c2.2,3,3.1,6.6,3.1,12.9v1.2
			H1372.8z"/>
	</g>
	<g>
		<g>
			<line class="st1" x1="78.9" y1="3821.8" x2="175.6" y2="3821.8"/>
			<rect x="78.9" y="3816.7" class="st4" width="96.7" height="10.2"/>
			<path class="st4" d="M141.7,3760.3c0-4.5,3.7-8.2,8.2-8.2s8.2,3.7,8.2,8.2s-3.7,8.2-8.2,8.2
				C145.4,3768.6,141.7,3764.9,141.7,3760.3"/>
			<path class="st4" d="M118.9,3760.3c0-4.5,3.7-8.2,8.2-8.2c4.5,0,8.2,3.7,8.2,8.2s-3.7,8.2-8.2,8.2S118.9,3764.9,118.9,3760.3"/>
			<path class="st4" d="M96.1,3760.3c0-4.5,3.7-8.2,8.2-8.2s8.2,3.7,8.2,8.2s-3.7,8.2-8.2,8.2S96.1,3764.9,96.1,3760.3"/>
			<path class="st4" d="M164.6,3811.6H89.3v-1l-18.4-103.2l8.2-1.4l2.4,13.6c2.3-0.5,3.8-1,6.1-1.9c0.9-0.3,1.9-0.7,3.1-1.1
				c1.4-0.9,2.3-1.4,3.1-1.9c1.2-0.6,1.7-0.9,3.7-2.9l0.5-0.4c0,0,0.1-0.1,0.4-0.3l0,0l3-2.6c0.8-0.7,1.6-1.6,2.4-2.5l0.3,0.2
				l0.6-0.5c2.9,3.4,5.8,5.5,5.8,5.5l0.5,0.5c2,1.9,2.5,2.2,3.7,2.9c0.8,0.4,1.7,0.9,3.1,1.8c3.5,1.2,4.5,1.3,7,1.5
				c1,0.1,2.1,0.2,3.5,0.3c4.4-0.3,5.5-0.8,9.2-2.2l1.1-0.4l1.9-1.3c1.8-1.2,2.2-1.5,5-3c0.8-0.8,3-3,5.4-5.8l1.2,1l0.1-0.1
				c0.1,0.2,0.3,0.4,0.4,0.5l4.6,4c0,0.1-0.1,0.1-0.1,0.2c0.1,0.1,0.1,0.1,0.1,0.1l0.7,0.6c1.8,1.8,2.4,2.1,3.8,2.7
				c1,0.4,2.1,1,3.7,2.1c1.2,0.4,2.2,0.8,3.1,1.1c1.9,0.7,3.2,1.2,4.9,1.6l2.5-13.2l8.2,1.5l-19,102.1l-0.4-0.1L164.6,3811.6
				L164.6,3811.6z M96.4,3803.3h61.3l14.1-75.9c-2.3-0.5-4-1.2-6.3-2c-1-0.4-2.1-0.8-3.4-1.3l-0.9-0.5c-1.4-0.9-2.3-1.4-3.2-1.8
				c-1.9-0.9-3.4-1.7-5.8-4c-0.2-0.2-0.5-0.4-0.9-0.7c-0.3,0.3-0.4,0.4-0.4,0.4l-0.9,0.6c-3,1.7-3.1,1.8-4.8,2.9l-3.1,2l-1.5,0.6
				c-4.4,1.7-6.1,2.3-11.6,2.7v0.1c-0.3,0-0.5-0.1-0.8-0.1c-0.7,0-1.4,0.1-2.1,0.1v-0.4c-0.7-0.1-1.3-0.1-1.8-0.1
				c-3.1-0.2-4.9-0.4-9.6-2.1l-0.9-0.5c-1.3-0.9-2.2-1.4-2.9-1.7c-1.7-0.9-2.9-1.6-5.4-4.1c-0.2-0.2-0.5-0.4-0.9-0.7
				c-0.5,0.5-1,0.8-1.2,1c-2.5,2.5-3.7,3.2-5.4,4.1c-0.7,0.4-1.6,0.9-2.9,1.7l-0.9,0.5c-1.4,0.5-2.5,0.9-3.5,1.3
				c-2.7,1-4.6,1.7-7.6,2.3L96.4,3803.3z"/>
		</g>
		<g>
			<polygon class="st4" points="598.8,3827.7 478.2,3827.7 538,3710.5 			"/>
			<path class="st4" d="M607.2,3832.8H470l68-133.4L607.2,3832.8z M486.5,3822.6h104l-52.5-101L486.5,3822.6z"/>
			<polygon class="st4" points="455.9,3812.3 450.4,3800 522.3,3768 450.4,3736 455.9,3723.7 538.9,3760.6 620.6,3724.2 
				626.1,3736.6 555.5,3768 626.1,3799.4 620.6,3811.8 538.9,3775.4 			"/>
		</g>
		<g>
			<path class="st4" d="M385.7,3834.3h-137V3698h137V3834.3z M259.5,3823.4h115.3v-114.6H259.5V3823.4z M317,3818.8
				c-29.3,0-53.2-23.9-53.2-53.2s23.9-53.2,53.2-53.2c29.3,0,53.2,23.9,53.2,53.2S346.4,3818.8,317,3818.8 M317,3723.3
				c-23.3,0-42.3,19-42.3,42.3c0,23.4,19,42.4,42.3,42.4c23.4,0,42.4-19,42.4-42.4C359.4,3742.3,340.4,3723.3,317,3723.3"/>
		</g>
		<g>
			<path class="st4" d="M784.7,3834.3c-37.6,0-68.2-30.6-68.2-68.1c0-37.6,30.6-68.1,68.2-68.1s68.2,30.6,68.2,68.1
				S822.3,3834.3,784.7,3834.3 M784.7,3708.8c-31.6,0-57.3,25.7-57.3,57.3s25.7,57.3,57.3,57.3s57.3-25.7,57.3-57.3
				C842.1,3734.5,816.3,3708.8,784.7,3708.8"/>
			<polygon class="st4" points="696.7,3813.1 690.8,3799.9 767.4,3765.8 690.8,3731.7 696.7,3718.6 785.1,3757.9 872.2,3719.1 
				878.1,3732.3 802.8,3765.8 878.1,3799.3 872.2,3812.5 785.1,3773.7 			"/>
		</g>
		<g>
			<path class="st4" d="M1095.8,3828h-153l1.2-5.9c1.1-5.4,11.2-52.8,27.8-64.6c12.6-9,26.1-8.7,26.7-8.6h77.4l-4.3-34.7h-90.3v-9.9
				h99.1L1095.8,3828z M955,3818.1h129.5l-7.4-59.3h-78.8c-0.2,0-11.1-0.2-20.8,6.8C967.6,3772.6,958.9,3801.9,955,3818.1"/>
			<path class="st4" d="M1013.6,3787.6c0-5.4,4.4-9.8,9.8-9.8s9.8,4.4,9.8,9.8c0,5.4-4.4,9.8-9.8,9.8
				C1018,3797.4,1013.6,3793,1013.6,3787.6"/>
		</g>
	</g>
</g>
</svg>
