<?xml version="1.0" encoding="utf-8"?>
<!-- Generator: Adobe Illustrator 25.4.0, SVG Export Plug-In . SVG Version: 6.00 Build 0)  -->
<svg version="1.1" id="Calque_1" xmlns="http://www.w3.org/2000/svg" xmlns:xlink="http://www.w3.org/1999/xlink" x="0px" y="0px"
	 viewBox="0 0 5973.3 2571" style="enable-background:new 0 0 5973.3 2571;" xml:space="preserve">
<style type="text/css">
	.st0{fill:#E05B11;}
	.st1{fill:none;}
	.st2{fill:#FFFFFF;}
	.st3{font-family:'EurostileExt-Bla';}
	.st4{font-size:1125.1527px;}
	.st5{font-family:'Eurostile-Reg';}
	.st6{font-size:106.0952px;}
	.st7{fill:#020000;}
</style>
<g>
	<polygon class="st0" points="0,17.4 5973.3,0 5973.3,1982.6 0,2000 	"/>
	<rect x="-282.7" y="675.3" class="st1" width="4170.4" height="755.5"/>
	<text transform="matrix(1 0 0 1 2735.532 1865.7507)" class="st2 st3 st4">P04</text>
	<text transform="matrix(1 0 0 1 49.6167 2192.6836)" class="st5 st6">RENÉ ANDRÉ SAINT-FLEUR</text>
	<text transform="matrix(1 0 0 1 49.6167 2319.9937)" class="st5 st6">GABRIELLA BUTEAU-PENA</text>
	<g>
		<g>
			<line class="st1" x1="61.8" y1="2490.6" x2="158.6" y2="2490.7"/>
			<rect x="61.8" y="2485.6" class="st7" width="96.7" height="10.2"/>
			<path class="st7" d="M124.6,2429.2c0-4.5,3.7-8.2,8.2-8.2s8.2,3.7,8.2,8.2s-3.7,8.2-8.2,8.2
				C128.3,2437.4,124.6,2433.8,124.6,2429.2"/>
			<path class="st7" d="M101.8,2429.2c0-4.5,3.7-8.2,8.2-8.2s8.2,3.7,8.2,8.2s-3.7,8.2-8.2,8.2S101.8,2433.8,101.8,2429.2"/>
			<path class="st7" d="M79,2429.2c0-4.5,3.7-8.2,8.2-8.2c4.5,0,8.2,3.7,8.2,8.2s-3.7,8.2-8.2,8.2S79,2433.8,79,2429.2"/>
			<path class="st7" d="M147.6,2480.5H72.2v-1l-18.4-103.2l8.2-1.4l2.4,13.6c2.3-0.5,3.8-1,6.1-1.9c0.9-0.3,1.9-0.7,3.1-1.1
				c1.4-0.9,2.3-1.4,3.1-1.9c1.2-0.6,1.7-0.9,3.7-2.9l0.5-0.4c0,0,0.1-0.1,0.4-0.3l0,0l3-2.6c0.8-0.7,1.6-1.6,2.4-2.6l0.3,0.2
				l0.6-0.5c2.9,3.4,5.8,5.5,5.8,5.5l0.5,0.4c2,1.9,2.5,2.2,3.7,2.9c0.8,0.4,1.7,0.9,3.1,1.8c3.5,1.2,4.5,1.3,7,1.5
				c1,0.1,2.1,0.2,3.5,0.3c4.4-0.3,5.5-0.8,9.2-2.2l1.1-0.4l1.9-1.3c1.8-1.2,2.2-1.5,5-3c0.8-0.8,3-3,5.4-5.8l1.2,1l0.1-0.1
				c0.1,0.2,0.3,0.4,0.4,0.5l4.6,4c0,0.1-0.1,0.1-0.1,0.2c0.1,0.1,0.1,0.1,0.1,0.1l0.7,0.6c1.8,1.8,2.4,2.1,3.8,2.7
				c1,0.4,2.1,1,3.7,2.1c1.2,0.4,2.2,0.8,3.1,1.1c1.9,0.7,3.2,1.2,4.9,1.6l2.5-13.2l8.2,1.5l-19,102.1l-0.4-0.1L147.6,2480.5
				L147.6,2480.5z M79.4,2472.1h61.3l14.1-75.9c-2.3-0.6-4-1.2-6.3-2c-1-0.4-2.1-0.8-3.4-1.3l-0.9-0.4c-1.4-0.9-2.3-1.4-3.2-1.8
				c-1.9-0.9-3.4-1.7-5.8-4.1c-0.2-0.2-0.5-0.4-0.9-0.7c-0.3,0.3-0.4,0.4-0.4,0.4l-0.9,0.6c-3,1.7-3.1,1.8-4.8,2.9l-3.1,2l-1.5,0.6
				c-4.4,1.7-6.1,2.3-11.6,2.7l0,0.1c-0.3,0-0.5-0.1-0.8-0.1c-0.7,0-1.4,0.1-2.1,0.1l0-0.4c-0.7-0.1-1.3-0.1-1.8-0.1
				c-3.1-0.2-4.9-0.4-9.6-2.1l-0.9-0.4c-1.3-0.9-2.2-1.4-2.9-1.7c-1.7-0.9-2.9-1.6-5.4-4.1c-0.2-0.2-0.5-0.4-0.9-0.7
				c-0.5,0.5-1,0.8-1.2,1c-2.5,2.5-3.7,3.2-5.4,4.1c-0.7,0.4-1.6,0.9-2.9,1.7L77,2393c-1.4,0.5-2.5,0.9-3.5,1.3
				c-2.7,1-4.6,1.7-7.6,2.3L79.4,2472.1z"/>
		</g>
		<g>
			<polygon class="st7" points="581.7,2496.6 461.2,2496.6 520.9,2379.4 			"/>
			<path class="st7" d="M590.1,2501.7H452.9l68-133.4L590.1,2501.7z M469.4,2491.5h104l-52.5-101L469.4,2491.5z"/>
			<polygon class="st7" points="438.8,2481.2 433.3,2468.9 505.2,2436.9 433.3,2404.9 438.8,2392.6 521.8,2429.5 603.5,2393.1 
				609,2405.5 538.4,2436.9 609,2468.3 603.5,2480.7 521.8,2444.3 			"/>
		</g>
		<g>
			<path class="st7" d="M368.6,2503.2h-137v-136.3h137V2503.2z M242.5,2492.3h115.3v-114.6H242.5V2492.3z M300,2487.7
				c-29.3,0-53.2-23.9-53.2-53.2c0-29.3,23.9-53.2,53.2-53.2s53.2,23.9,53.2,53.2S329.3,2487.7,300,2487.7 M300,2392.1
				c-23.4,0-42.3,19-42.3,42.3c0,23.4,19,42.4,42.3,42.4c23.4,0,42.4-19,42.4-42.4C342.3,2411.1,323.3,2392.1,300,2392.1"/>
		</g>
		<g>
			<path class="st7" d="M767.6,2503.2c-37.6,0-68.2-30.6-68.2-68.1c0-37.6,30.6-68.1,68.2-68.1s68.2,30.6,68.2,68.1
				C835.8,2472.6,805.2,2503.2,767.6,2503.2 M767.6,2377.7c-31.6,0-57.3,25.7-57.3,57.3s25.7,57.3,57.3,57.3s57.3-25.7,57.3-57.3
				C825,2403.4,799.3,2377.7,767.6,2377.7"/>
			<polygon class="st7" points="679.6,2481.9 673.7,2468.8 750.3,2434.7 673.7,2400.6 679.6,2387.5 768.1,2426.8 855.1,2388 
				861,2401.2 785.8,2434.7 861,2468.2 855.1,2481.3 768.1,2442.6 			"/>
		</g>
		<g>
			<path class="st7" d="M1078.7,2496.9h-153l1.2-5.9c1.1-5.4,11.2-52.8,27.8-64.6c12.6-9,26.1-8.7,26.7-8.6h77.4l-4.3-34.7h-90.3
				v-9.9h99.1L1078.7,2496.9z M938,2487h129.5l-7.4-59.3h-78.8c-0.2,0-11.1-0.2-20.8,6.8C950.5,2441.5,941.8,2470.8,938,2487"/>
			<path class="st7" d="M996.5,2456.5c0-5.4,4.4-9.8,9.8-9.8c5.4,0,9.8,4.4,9.8,9.8c0,5.4-4.4,9.8-9.8,9.8
				C1000.9,2466.3,996.5,2461.9,996.5,2456.5"/>
		</g>
	</g>
</g>
<polygon class="st1" points="1552.8,2629.3 1560.1,2629.3 1560.1,2629.3 "/>
</svg>
