<?xml version="1.0" encoding="utf-8"?>
<!-- Generator: Adobe Illustrator 25.4.1, SVG Export Plug-In . SVG Version: 6.00 Build 0)  -->
<svg version="1.1" id="Calque_1" xmlns="http://www.w3.org/2000/svg" xmlns:xlink="http://www.w3.org/1999/xlink" x="0px" y="0px"
	 viewBox="0 0 5973.3 3264.7" style="enable-background:new 0 0 5973.3 3264.7;" xml:space="preserve">
<style type="text/css">
	.st0{fill:#E05B11;}
	.st1{fill:none;}
	.st2{fill:#FFFFFF;}
	.st3{font-family:'EurostileExt-Bla';}
	.st4{font-size:1125.1527px;}
	.st5{font-family:'Eurostile-Reg';}
	.st6{font-size:226px;}
	.st7{fill:#020000;}
</style>
<g>
	<polygon class="st0" points="0,17.4 5973.3,0 5973.3,1982.6 0,2000 	"/>
	<rect x="-282.7" y="675.3" class="st1" width="4170.4" height="755.5"/>
	<text transform="matrix(1 0 0 1 2735.532 1865.7507)" class="st2 st3 st4">P04</text>
	<text transform="matrix(1.0225 0 0 1 40.6242 2250.4583)" class="st5 st6">RENÉ ANDRÉ SAINT-FLEUR</text>
	<text transform="matrix(1 0 0 1 42.3231 2494.4653)" class="st5 st6">GABRIELLA BUTEAU-PENA</text>
	<g>
		<g>
			<line class="st1" x1="77.3" y1="2684.9" x2="174.1" y2="2685"/>
			<rect x="77.3" y="2679.9" class="st7" width="96.7" height="10.2"/>
			<path class="st7" d="M140.1,2623.5c0-4.5,3.7-8.2,8.2-8.2s8.2,3.7,8.2,8.2s-3.7,8.2-8.2,8.2S140.1,2628.1,140.1,2623.5"/>
			<path class="st7" d="M117.3,2623.5c0-4.5,3.7-8.2,8.2-8.2s8.2,3.7,8.2,8.2s-3.7,8.2-8.2,8.2S117.3,2628.1,117.3,2623.5"/>
			<path class="st7" d="M94.5,2623.5c0-4.5,3.7-8.2,8.2-8.2s8.2,3.7,8.2,8.2s-3.7,8.2-8.2,8.2S94.5,2628.1,94.5,2623.5"/>
			<path class="st7" d="M163.1,2674.8H87.7v-1l-18.4-103.2l8.2-1.4l2.4,13.6c2.3-0.5,3.8-1,6.1-1.9c0.9-0.3,1.9-0.7,3.1-1.1
				c1.4-0.9,2.3-1.4,3.1-1.9c1.2-0.6,1.7-0.9,3.7-2.9l0.5-0.4c0,0,0.1-0.1,0.4-0.3l0,0l3-2.6c0.8-0.7,1.6-1.6,2.4-2.6l0.3,0.2
				l0.6-0.5c2.9,3.4,5.8,5.5,5.8,5.5l0.5,0.4c2,1.9,2.5,2.2,3.7,2.9c0.8,0.4,1.7,0.9,3.1,1.8c3.5,1.2,4.5,1.3,7,1.5
				c1,0.1,2.1,0.2,3.5,0.3c4.4-0.3,5.5-0.8,9.2-2.2l1.1-0.4l1.9-1.3c1.8-1.2,2.2-1.5,5-3c0.8-0.8,3-3,5.4-5.8l1.2,1l0.1-0.1
				c0.1,0.2,0.3,0.4,0.4,0.5l4.6,4c0,0.1-0.1,0.1-0.1,0.2c0.1,0.1,0.1,0.1,0.1,0.1l0.7,0.6c1.8,1.8,2.4,2.1,3.8,2.7
				c1,0.4,2.1,1,3.7,2.1c1.2,0.4,2.2,0.8,3.1,1.1c1.9,0.7,3.2,1.2,4.9,1.6l2.5-13.2l8.2,1.5l-19,102.1l-0.4-0.1L163.1,2674.8
				L163.1,2674.8z M94.9,2666.4h61.3l14.1-75.9c-2.3-0.6-4-1.2-6.3-2c-1-0.4-2.1-0.8-3.4-1.3l-0.9-0.4c-1.4-0.9-2.3-1.4-3.2-1.8
				c-1.9-0.9-3.4-1.7-5.8-4.1c-0.2-0.2-0.5-0.4-0.9-0.7c-0.3,0.3-0.4,0.4-0.4,0.4l-0.9,0.6c-3,1.7-3.1,1.8-4.8,2.9l-3.1,2l-1.5,0.6
				c-4.4,1.7-6.1,2.3-11.6,2.7v0.1c-0.3,0-0.5-0.1-0.8-0.1c-0.7,0-1.4,0.1-2.1,0.1v-0.4c-0.7-0.1-1.3-0.1-1.8-0.1
				c-3.1-0.2-4.9-0.4-9.6-2.1l-0.9-0.4c-1.3-0.9-2.2-1.4-2.9-1.7c-1.7-0.9-2.9-1.6-5.4-4.1c-0.2-0.2-0.5-0.4-0.9-0.7
				c-0.5,0.5-1,0.8-1.2,1c-2.5,2.5-3.7,3.2-5.4,4.1c-0.7,0.4-1.6,0.9-2.9,1.7l-1.1,0.5c-1.4,0.5-2.5,0.9-3.5,1.3
				c-2.7,1-4.6,1.7-7.6,2.3L94.9,2666.4z"/>
		</g>
		<g>
			<polygon class="st7" points="597.2,2690.9 476.7,2690.9 536.4,2573.6 			"/>
			<path class="st7" d="M605.5,2696H468.4l68-133.4L605.5,2696z M484.9,2685.8h104l-52.5-101L484.9,2685.8z"/>
			<polygon class="st7" points="454.3,2675.5 448.8,2663.1 520.7,2631.1 448.8,2599.1 454.3,2586.9 537.2,2623.8 619,2587.4 
				624.5,2599.8 553.9,2631.1 624.5,2662.6 619,2675 537.2,2638.6 			"/>
		</g>
		<g>
			<path class="st7" d="M384.1,2697.5h-137v-136.3h137V2697.5z M258,2686.6h115.3V2572H258V2686.6z M315.5,2682
				c-29.3,0-53.2-23.9-53.2-53.2c0-29.3,23.9-53.2,53.2-53.2s53.2,23.9,53.2,53.2C368.7,2658.1,344.8,2682,315.5,2682 M315.5,2586.4
				c-23.4,0-42.3,19-42.3,42.3c0,23.4,19,42.4,42.3,42.4c23.4,0,42.4-19,42.4-42.4C357.8,2605.4,338.8,2586.4,315.5,2586.4"/>
		</g>
		<g>
			<path class="st7" d="M783,2697.5c-37.6,0-68.2-30.6-68.2-68.1c0-37.6,30.6-68.1,68.2-68.1s68.2,30.6,68.2,68.1
				S820.7,2697.5,783,2697.5 M783,2572c-31.6,0-57.3,25.7-57.3,57.3s25.7,57.3,57.3,57.3s57.3-25.7,57.3-57.3
				C840.5,2597.6,814.8,2572,783,2572"/>
			<polygon class="st7" points="695,2676.1 689.2,2663.1 765.8,2629 689.2,2594.9 695,2581.8 783.5,2621.1 870.5,2582.2 
				876.5,2595.5 801.2,2629 876.5,2662.5 870.5,2675.6 783.5,2636.9 			"/>
		</g>
		<g>
			<path class="st7" d="M1094.2,2691.1h-153l1.2-5.9c1.1-5.4,11.2-52.8,27.8-64.6c12.6-9,26.1-8.7,26.7-8.6h77.4l-4.3-34.7h-90.3
				v-9.9h99.1L1094.2,2691.1z M953.5,2681.2H1083l-7.4-59.3h-78.8c-0.2,0-11.1-0.2-20.8,6.8C966,2635.8,957.2,2665.1,953.5,2681.2"
				/>
			<path class="st7" d="M1012,2650.8c0-5.4,4.4-9.8,9.8-9.8c5.4,0,9.8,4.4,9.8,9.8s-4.4,9.8-9.8,9.8
				C1016.4,2660.6,1012,2656.1,1012,2650.8"/>
		</g>
	</g>
</g>
<polygon class="st1" points="1552.8,2629.3 1560.1,2629.3 1560.1,2629.3 "/>
</svg>
