<?xml version="1.0" encoding="utf-8"?>
<!-- Generator: Adobe Illustrator 25.3.0, SVG Export Plug-In . SVG Version: 6.00 Build 0)  -->
<svg version="1.1" id="Calque_1" xmlns="http://www.w3.org/2000/svg" xmlns:xlink="http://www.w3.org/1999/xlink" x="0px" y="0px"
	 viewBox="0 0 4000 4000" style="enable-background:new 0 0 4000 4000;" xml:space="preserve">
<style type="text/css">
	.st0{fill:#DA3715;}
	.st1{fill:none;}
	.st2{fill:#FFFFFF;}
	.st3{font-family:'EurostileExt-Bla';}
	.st4{font-size:1125.1527px;}
	.st5{font-family:'Eurostile-Reg';}
	.st6{font-size:106.0952px;}
	.st7{fill:#020000;}
</style>
<g>
	<rect x="218.51" y="1286.02" class="st0" width="3562.98" height="960.13"/>
	<rect x="-141.39" y="1388.49" class="st1" width="4170.39" height="755.52"/>
	<text transform="matrix(1 0 0 1 288.1663 2138.9629)" class="st2 st3 st4">H03</text>
	<text transform="matrix(1 0 0 1 218.8034 2403.5073)"><tspan x="0" y="0" class="st5 st6">ISABEL DURAN</tspan><tspan x="0" y="127.31" class="st5 st6">FRANÇOIS MARCEAU</tspan></text>
	<g>
		<g>
			<line class="st7" x1="231.01" y1="2701.47" x2="327.76" y2="2701.52"/>
			<rect x="231.01" y="2696.41" class="st7" width="96.74" height="10.17"/>
			<path class="st7" d="M293.8,2640.05c0-4.54,3.68-8.22,8.22-8.22c4.54,0,8.22,3.68,8.22,8.22c0,4.54-3.68,8.22-8.22,8.22
				C297.48,2648.27,293.8,2644.58,293.8,2640.05"/>
			<path class="st7" d="M271.03,2640.05c0-4.54,3.68-8.22,8.22-8.22s8.22,3.68,8.22,8.22c0,4.54-3.68,8.22-8.22,8.22
				S271.03,2644.58,271.03,2640.05"/>
			<path class="st7" d="M248.2,2640.05c0-4.54,3.68-8.22,8.22-8.22c4.54,0,8.21,3.68,8.21,8.22c0,4.54-3.67,8.22-8.21,8.22
				C251.88,2648.27,248.2,2644.58,248.2,2640.05"/>
			<path class="st7" d="M316.76,2691.3H241.4v-1.03l-18.42-103.17l8.19-1.45l2.44,13.63c2.34-0.47,3.75-1,6.15-1.91
				c0.9-0.33,1.91-0.72,3.11-1.15c1.38-0.9,2.32-1.41,3.1-1.85c1.22-0.65,1.73-0.95,3.7-2.89l0.52-0.44
				c0.01-0.01,0.15-0.09,0.38-0.29l-0.03-0.04l3.04-2.59c0.76-0.74,1.59-1.59,2.4-2.55l0.28,0.24l0.59-0.51
				c2.89,3.37,5.78,5.46,5.81,5.47l0.51,0.45c1.96,1.95,2.47,2.23,3.7,2.9c0.78,0.43,1.71,0.93,3.08,1.83
				c3.49,1.22,4.55,1.3,6.99,1.48c0.96,0.07,2.09,0.16,3.55,0.33c4.39-0.33,5.46-0.75,9.18-2.2l1.11-0.43l1.86-1.26
				c1.78-1.22,2.2-1.49,4.95-3.01c0.83-0.84,2.95-3.01,5.37-5.82l1.16,0.97l0.08-0.06c0.15,0.18,0.31,0.35,0.44,0.52l4.64,3.98
				c-0.04,0.06-0.09,0.12-0.14,0.16c0.09,0.06,0.14,0.1,0.15,0.1l0.69,0.57c1.77,1.75,2.44,2.08,3.79,2.74
				c0.95,0.44,2.11,1,3.74,2.06c1.2,0.43,2.21,0.81,3.1,1.14c1.92,0.73,3.22,1.21,4.85,1.62l2.46-13.23l8.18,1.51l-18.95,102.15
				l-0.39-0.07V2691.3z M248.56,2682.97h61.3l14.08-75.93c-2.31-0.55-3.97-1.16-6.27-2.03c-0.96-0.37-2.07-0.78-3.43-1.27l-0.9-0.45
				c-1.37-0.92-2.28-1.35-3.17-1.79c-1.91-0.92-3.38-1.7-5.77-4.05c-0.23-0.16-0.55-0.39-0.94-0.69c-0.26,0.26-0.42,0.41-0.44,0.44
				l-0.89,0.65c-2.99,1.66-3.13,1.76-4.81,2.9l-3.11,1.96l-1.51,0.6c-4.42,1.71-6.14,2.31-11.61,2.73l-0.02,0.15
				c-0.28-0.03-0.54-0.06-0.78-0.09c-0.67,0.03-1.38,0.07-2.14,0.12l-0.01-0.37c-0.69-0.06-1.29-0.1-1.82-0.14
				c-3.08-0.23-4.93-0.43-9.63-2.12l-0.9-0.45c-1.34-0.89-2.2-1.35-2.9-1.74c-1.68-0.91-2.87-1.61-5.38-4.11
				c-0.21-0.16-0.53-0.41-0.93-0.73c-0.55,0.46-0.99,0.8-1.24,1c-2.52,2.5-3.7,3.19-5.39,4.11c-0.7,0.39-1.56,0.85-2.88,1.73
				l-0.9,0.46c-1.38,0.49-2.49,0.91-3.46,1.27c-2.71,1.02-4.55,1.71-7.63,2.31L248.56,2682.97z"/>
		</g>
		<g>
			<polygon class="st7" points="750.93,2707.43 630.36,2707.43 690.08,2590.24 			"/>
			<path class="st7" d="M759.28,2712.5h-137.2l67.96-133.35L759.28,2712.5z M638.63,2702.36h103.95l-52.46-101.04L638.63,2702.36z"
				/>
			<polygon class="st7" points="608,2692.05 602.5,2679.7 674.37,2647.71 602.5,2615.73 608,2603.38 690.99,2640.31 772.73,2603.94 
				778.22,2616.29 707.63,2647.71 778.22,2679.13 772.73,2691.48 690.99,2655.12 			"/>
		</g>
		<g>
			<path class="st7" d="M537.8,2713.98h-137v-136.3h137V2713.98z M411.65,2703.12h115.28v-114.58H411.65V2703.12z M469.15,2698.53
				c-29.34,0-53.2-23.86-53.2-53.21c0-29.34,23.86-53.2,53.2-53.2c29.34,0,53.21,23.86,53.21,53.2
				C522.36,2674.66,498.49,2698.53,469.15,2698.53 M469.15,2602.97c-23.35,0-42.34,18.99-42.34,42.34
				c0,23.36,18.99,42.36,42.34,42.36c23.36,0,42.35-19,42.35-42.36C511.51,2621.97,492.51,2602.97,469.15,2602.97"/>
		</g>
		<g>
			<path class="st7" d="M936.83,2713.98c-37.58,0-68.15-30.58-68.15-68.15c0-37.59,30.57-68.15,68.15-68.15s68.15,30.56,68.15,68.15
				C1004.98,2683.4,974.41,2713.98,936.83,2713.98 M936.83,2588.49c-31.62,0-57.34,25.72-57.34,57.34
				c0,31.62,25.72,57.34,57.34,57.34s57.34-25.72,57.34-57.34C994.17,2614.21,968.44,2588.49,936.83,2588.49"/>
			<polygon class="st7" points="848.8,2692.77 842.93,2679.6 919.51,2645.53 842.93,2611.43 848.8,2598.28 937.24,2637.63 
				1024.33,2598.86 1030.2,2612.04 954.95,2645.53 1030.2,2679 1024.33,2692.17 937.24,2653.41 			"/>
		</g>
		<g>
			<path class="st7" d="M1247.88,2707.71H1094.9l1.22-5.95c1.09-5.36,11.22-52.78,27.75-64.58c12.55-8.97,26.14-8.68,26.72-8.63
				H1228l-4.33-34.68h-90.31v-9.91h99.06L1247.88,2707.71z M1107.15,2697.79h129.5l-7.41-59.34h-78.82
				c-0.22-0.01-11.05-0.18-20.79,6.78C1119.69,2652.34,1111.01,2681.58,1107.15,2697.79"/>
			<path class="st7" d="M1165.73,2667.36c0-5.41,4.38-9.8,9.8-9.8c5.39,0,9.78,4.39,9.78,9.8c0,5.41-4.39,9.79-9.78,9.79
				C1170.1,2677.15,1165.73,2672.76,1165.73,2667.36"/>
		</g>
	</g>
</g>
</svg>
