<?xml version="1.0" encoding="utf-8"?>
<!-- Generator: Adobe Illustrator 25.4.0, SVG Export Plug-In . SVG Version: 6.00 Build 0)  -->
<svg version="1.1" id="Calque_1" xmlns="http://www.w3.org/2000/svg" xmlns:xlink="http://www.w3.org/1999/xlink" x="0px" y="0px"
	 viewBox="0 0 1251.9 2410.3" style="enable-background:new 0 0 1251.9 2410.3;" xml:space="preserve">
<style type="text/css">
	.st0{fill:#DA3715;}
	.st1{fill:none;}
	.st2{fill:#FFFFFF;}
	.st3{font-family:'EurostileExt-Bla';}
	.st4{font-size:722.6898px;}
	.st5{font-family:'Eurostile-Reg';}
	.st6{font-size:68.1453px;}
	.st7{fill:#020000;}
</style>
<g>
	<rect x="62.2" y="3.6" class="st0" width="616.7" height="2185.9"/>
	<rect x="128.1" y="-148.2" class="st1" width="485.3" height="2558.5"/>
	<text transform="matrix(6.123234e-17 -0.9552 1 5.848643e-17 610.0776 2166.2595)" class="st2 st3 st4">H03</text>
	<text transform="matrix(6.123234e-17 -0.9552 1 5.848643e-17 779.9951 2189.324)" class="st5 st6">ISABEL DURAN</text>
	<text transform="matrix(6.123234e-17 -0.9552 1 5.848643e-17 861.767 2189.324)" class="st5 st6">FRANÇOIS MARCEAU</text>
	<g>
		<g>
			<line class="st1" x1="971.4" y1="2181.8" x2="971.4" y2="2122.5"/>
			<rect x="968.1" y="2122.5" class="st7" width="6.6" height="59.3"/>
			<path class="st7" d="M932,2143.3c-2.9,0-5.3-2.3-5.3-5s2.4-5,5.3-5c2.9,0,5.3,2.3,5.3,5S934.8,2143.3,932,2143.3"/>
			<path class="st7" d="M932,2157.3c-2.9,0-5.3-2.3-5.3-5s2.4-5,5.3-5c2.9,0,5.3,2.3,5.3,5S934.8,2157.3,932,2157.3"/>
			<path class="st7" d="M932,2171.3c-2.9,0-5.3-2.3-5.3-5s2.4-5,5.3-5c2.9,0,5.3,2.3,5.3,5S934.8,2171.3,932,2171.3"/>
			<path class="st7" d="M964.8,2129.2v46.3h-0.6l-66.3,11.3l-0.9-5l8.7-1.5c-0.3-1.4-0.6-2.3-1.2-3.7c-0.2-0.6-0.4-1.2-0.7-1.9
				c-0.6-0.9-0.9-1.4-1.2-1.9c-0.4-0.7-0.6-1-1.9-2.3l-0.3-0.3c0,0-0.1-0.1-0.2-0.2l0,0l-1.7-1.8c-0.4-0.5-1-1-1.7-1.5l0.1-0.2
				l-0.3-0.4c2.2-1.8,3.5-3.6,3.5-3.6l0.3-0.3c1.2-1.2,1.4-1.5,1.9-2.3c0.3-0.5,0.6-1,1.2-1.9c0.8-2.1,0.8-2.8,1-4.3
				c0.1-0.6,0.1-1.3,0.2-2.1c-0.2-2.7-0.5-3.4-1.4-5.6l-0.3-0.7l-0.8-1.2c-0.8-1.1-1-1.3-1.9-3.1c-0.5-0.5-1.9-1.8-3.7-3.3l0.6-0.7
				l-0.1-0.1c0.1-0.1,0.3-0.2,0.3-0.2l2.6-2.8c0.1,0,0.1,0.1,0.1,0.1c0.1-0.1,0.1-0.1,0.1-0.1l0.4-0.4c1.2-1.1,1.3-1.5,1.7-2.3
				c0.3-0.6,0.6-1.3,1.3-2.3c0.3-0.7,0.5-1.3,0.7-1.9c0.4-1.2,0.8-2,1-3l-8.5-1.5l1-5l65.6,11.7l-0.1,0.2H964.8L964.8,2129.2z
				 M959.5,2171v-37.6l-48.8-8.7c-0.4,1.4-0.8,2.5-1.3,3.9c-0.3,0.6-0.5,1.3-0.8,2.1l-0.3,0.6c-0.6,0.9-0.9,1.4-1.2,2
				c-0.6,1.2-1.1,2.1-2.6,3.6c-0.1,0.1-0.3,0.3-0.4,0.6c0.2,0.2,0.3,0.2,0.3,0.2l0.4,0.6c1.1,1.8,1.2,1.9,1.9,2.9l1.3,1.9l0.4,0.9
				c1.1,2.7,1.5,3.7,1.7,7.1h0.1c0,0.2-0.1,0.3-0.1,0.5c0,0.4,0.1,0.9,0.1,1.3h-0.3c-0.1,0.4-0.1,0.8-0.1,1.1
				c-0.1,1.9-0.3,3-1.3,5.9l-0.3,0.6c-0.6,0.8-0.9,1.3-1.1,1.8c-0.6,1-1,1.8-2.6,3.3c-0.1,0.1-0.3,0.3-0.4,0.6
				c0.3,0.3,0.5,0.6,0.6,0.7c1.6,1.5,2.1,2.3,2.6,3.3c0.3,0.4,0.6,1,1.1,1.8l0.3,0.6c0.3,0.9,0.6,1.5,0.8,2.1
				c0.6,1.7,1.1,2.8,1.5,4.7L959.5,2171z"/>
		</g>
		<g>
			<polygon class="st7" points="975.2,1862.9 975.2,1936.8 899.9,1900.2 			"/>
			<path class="st7" d="M978.5,1857.7v84.2l-85.7-41.7L978.5,1857.7z M972,1931.8V1868l-64.9,32.2L972,1931.8z"/>
			<polygon class="st7" points="965.4,1950.6 957.4,1953.9 936.8,1909.8 916.3,1953.9 908.4,1950.6 932.1,1899.6 908.7,1849.5 
				916.7,1846.1 936.8,1889.4 957,1846.1 965,1849.5 941.6,1899.6 			"/>
		</g>
		<g>
			<path class="st7" d="M979.4,1993.6v84h-87.5v-84H979.4z M972.4,2071v-70.7h-73.6v70.7H972.4z M969.5,2035.8
				c0,18-15.4,32.6-34.2,32.6s-34.2-14.7-34.2-32.6c0-18,15.4-32.6,34.2-32.6S969.5,2017.7,969.5,2035.8 M908.1,2035.8
				c0,14.4,12.2,26,27.2,26c15,0,27.2-11.7,27.2-26c0-14.4-12.2-26-27.2-26C920.3,2009.8,908.1,2021.4,908.1,2035.8"/>
		</g>
		<g>
			<path class="st7" d="M979.4,1748.8c0,23.1-19.7,41.8-43.7,41.8c-24.2,0-43.7-18.8-43.7-41.8s19.7-41.8,43.7-41.8
				C959.8,1707,979.4,1725.8,979.4,1748.8 M898.8,1748.8c0,19.4,16.5,35.2,36.8,35.2s36.8-15.8,36.8-35.2s-16.5-35.2-36.8-35.2
				C915.3,1713.6,898.8,1729.4,898.8,1748.8"/>
			<polygon class="st7" points="965.8,1802.8 957.3,1806.4 935.4,1759.4 913.5,1806.4 905.1,1802.8 930.4,1748.6 905.5,1695.2 
				913.9,1691.5 935.4,1737.7 956.9,1691.5 965.4,1695.2 940.5,1748.6 			"/>
		</g>
		<g>
			<path class="st7" d="M975.4,1558v93.9l-3.8-0.7c-3.5-0.7-33.9-6.9-41.5-17.1c-5.8-7.7-5.6-16-5.5-16.4v-47.5l-22.3,2.6v55.4h-6.4
				v-60.8L975.4,1558z M969,1644.3v-79.4l-38.1,4.5v48.3c0,0.1-0.1,6.8,4.4,12.8C939.8,1636.6,958.6,1642,969,1644.3"/>
			<path class="st7" d="M949.5,1608.4c-3.5,0-6.3-2.7-6.3-6c0-3.3,2.8-6,6.3-6c3.5,0,6.3,2.7,6.3,6
				C955.7,1605.7,953,1608.4,949.5,1608.4"/>
		</g>
	</g>
</g>
</svg>
