<?xml version="1.0" encoding="utf-8"?>
<!-- Generator: Adobe Illustrator 25.4.0, SVG Export Plug-In . SVG Version: 6.00 Build 0)  -->
<svg version="1.1" id="Calque_1" xmlns="http://www.w3.org/2000/svg" xmlns:xlink="http://www.w3.org/1999/xlink" x="0px" y="0px"
	 viewBox="0 0 1826.5 3213" style="enable-background:new 0 0 1826.5 3213;" xml:space="preserve">
<style type="text/css">
	.st0{fill:#DA3715;}
	.st1{fill:none;}
	.st2{fill:#FFFFFF;}
	.st3{font-family:'EurostileExt-Bla';}
	.st4{font-size:985.8163px;}
	.st5{font-family:'Eurostile-Reg';}
	.st6{font-size:92.9566px;}
	.st7{fill:#020000;}
</style>
<g>
	<rect y="2.4" class="st0" width="841.2" height="2972.6"/>
	<rect x="89.8" y="-204.1" class="st1" width="661.9" height="3479.4"/>
	<text transform="matrix(6.123234e-17 -0.9522 1 5.830703e-17 747.3339 2943.3989)" class="st2 st3 st4">H03</text>
	<text transform="matrix(6.123234e-17 -0.9522 1 5.830703e-17 979.1176 2974.7651)" class="st5 st6">ISABEL DURAN</text>
	<text transform="matrix(6.123234e-17 -0.9522 1 5.830703e-17 1090.662 2974.7651)" class="st5 st6">FRANÇOIS MARCEAU</text>
	<g>
		<g>
			<line class="st1" x1="1240.2" y1="2964.6" x2="1240.2" y2="2883.8"/>
			<rect x="1235.7" y="2883.9" class="st7" width="8.9" height="80.7"/>
			<path class="st7" d="M1186.4,2912.2c-3.9,0-7.2-3.1-7.2-6.8s3.2-6.8,7.2-6.8s7.2,3.1,7.2,6.8S1190.4,2912.2,1186.4,2912.2"/>
			<path class="st7" d="M1186.4,2931.2c-3.9,0-7.2-3.1-7.2-6.8s3.2-6.8,7.2-6.8s7.2,3.1,7.2,6.8S1190.4,2931.2,1186.4,2931.2"/>
			<path class="st7" d="M1186.4,2950.2c-3.9,0-7.2-3.1-7.2-6.8s3.2-6.8,7.2-6.8s7.2,3.1,7.2,6.8S1190.4,2950.2,1186.4,2950.2"/>
			<path class="st7" d="M1231.3,2893v62.9h-0.9l-90.4,15.4l-1.2-6.8l11.9-2c-0.4-1.9-0.9-3.2-1.7-5.1c-0.3-0.8-0.6-1.6-1-2.6
				c-0.8-1.2-1.2-1.9-1.7-2.6c-0.5-1-0.8-1.4-2.5-3.1l-0.4-0.4c0,0-0.1-0.1-0.3-0.3l0,0l-2.3-2.5c-0.6-0.7-1.4-1.3-2.3-2l0.2-0.3
				l-0.4-0.5c3-2.4,4.8-4.8,4.8-4.8l0.4-0.4c1.7-1.7,1.9-2.1,2.5-3.1c0.4-0.7,0.8-1.4,1.6-2.6c1.1-2.9,1.1-3.8,1.3-5.8
				c0.1-0.8,0.2-1.8,0.3-2.9c-0.3-3.7-0.7-4.6-1.9-7.7l-0.4-0.9l-1.1-1.6c-1.1-1.5-1.3-1.8-2.6-4.2c-0.7-0.7-2.6-2.5-5.1-4.5l0.9-1
				l-0.1-0.1c0.2-0.1,0.4-0.3,0.4-0.3l3.5-3.8c0.1,0,0.1,0.1,0.2,0.1c0.1-0.1,0.1-0.1,0.1-0.1l0.5-0.6c1.6-1.5,1.8-2,2.4-3.2
				c0.4-0.8,0.9-1.8,1.8-3.1c0.4-1,0.7-1.8,1-2.6c0.6-1.6,1.1-2.7,1.4-4.1l-11.6-2.1l1.3-6.8l89.5,15.9l-0.1,0.3H1231.3L1231.3,2893
				z M1224,2949.9v-51.1l-66.5-11.8c-0.5,1.9-1.1,3.3-1.8,5.3c-0.4,0.8-0.7,1.8-1.1,2.8l-0.4,0.8c-0.8,1.2-1.2,1.9-1.6,2.7
				c-0.8,1.6-1.5,2.8-3.6,4.8c-0.2,0.2-0.4,0.4-0.6,0.8c0.3,0.3,0.4,0.3,0.4,0.3l0.5,0.8c1.5,2.5,1.6,2.6,2.5,4l1.8,2.6l0.5,1.3
				c1.5,3.7,2,5.1,2.4,9.7h0.1c0,0.3-0.1,0.4-0.1,0.7c0,0.6,0.1,1.2,0.1,1.8h-0.4c-0.1,0.6-0.1,1.1-0.1,1.5c-0.2,2.6-0.4,4.1-1.8,8
				l-0.4,0.8c-0.8,1.1-1.2,1.8-1.5,2.4c-0.8,1.4-1.4,2.4-3.6,4.5c-0.2,0.2-0.4,0.4-0.6,0.8c0.4,0.4,0.7,0.8,0.9,1
				c2.2,2.1,2.8,3.1,3.6,4.5c0.4,0.6,0.8,1.3,1.5,2.4l0.4,0.8c0.4,1.2,0.8,2.1,1.1,2.9c0.9,2.3,1.5,3.8,2,6.3L1224,2949.9z"/>
		</g>
		<g>
			<polygon class="st7" points="1245.4,2530.8 1245.4,2631.4 1142.7,2581.6 			"/>
			<path class="st7" d="M1249.8,2523.8v114.5l-116.9-56.7L1249.8,2523.8z M1241,2624.5v-86.8l-88.5,43.8L1241,2624.5z"/>
			<polygon class="st7" points="1232,2650.1 1221.1,2654.6 1193.1,2594.7 1165,2654.6 1154.3,2650.1 1186.6,2580.8 1154.7,2512.6 
				1165.6,2508.1 1193.1,2567 1220.6,2508.1 1231.4,2512.6 1199.6,2580.8 			"/>
		</g>
		<g>
			<path class="st7" d="M1251.2,2708.6v114.3h-119.4v-114.3H1251.2z M1241.6,2813.9v-96.2h-100.4v96.2H1241.6z M1237.6,2765.9
				c0,24.4-20.9,44.4-46.6,44.4s-46.6-19.9-46.6-44.4c0-24.4,20.9-44.4,46.6-44.4S1237.6,2741.4,1237.6,2765.9 M1153.9,2765.9
				c0,19.5,16.6,35.3,37.1,35.3c20.5,0,37.1-15.9,37.1-35.3c0-19.5-16.6-35.4-37.1-35.4C1170.6,2730.6,1153.9,2746.4,1153.9,2765.9"
				/>
		</g>
		<g>
			<path class="st7" d="M1251.2,2375.7c0,31.4-26.8,56.9-59.7,56.9c-32.9,0-59.7-25.5-59.7-56.9s26.8-56.9,59.7-56.9
				C1224.3,2318.8,1251.2,2344.4,1251.2,2375.7 M1141.2,2375.7c0,26.4,22.5,47.8,50.2,47.8c27.7,0,50.2-21.4,50.2-47.8
				s-22.5-47.8-50.2-47.8C1163.7,2327.8,1141.2,2349.4,1141.2,2375.7"/>
			<polygon class="st7" points="1232.6,2449.2 1221,2454.1 1191.1,2390.2 1161.3,2454.1 1149.8,2449.2 1184.2,2375.4 1150.3,2302.7 
				1161.8,2297.8 1191.1,2360.6 1220.5,2297.8 1232.1,2302.7 1198.1,2375.4 			"/>
		</g>
		<g>
			<path class="st7" d="M1245.6,2116.2v127.6l-5.2-1c-4.7-0.9-46.3-9.3-56.6-23.2c-7.9-10.5-7.6-21.8-7.5-22.3v-64.6l-30.4,3.6v75.3
				h-8.7V2129L1245.6,2116.2z M1237,2233.6v-108l-52,6.2v65.7c0,0.2-0.2,9.3,6,17.4C1197.1,2223.1,1222.8,2230.4,1237,2233.6"/>
			<path class="st7" d="M1210.3,2184.8c-4.7,0-8.6-3.7-8.6-8.2c0-4.5,3.9-8.2,8.6-8.2c4.7,0,8.6,3.7,8.6,8.2
				C1218.8,2181.1,1215.1,2184.8,1210.3,2184.8"/>
		</g>
	</g>
</g>
</svg>
