<?xml version="1.0" encoding="utf-8"?>
<!-- Generator: Adobe Illustrator 25.4.1, SVG Export Plug-In . SVG Version: 6.00 Build 0)  -->
<svg version="1.1" id="Calque_1" xmlns="http://www.w3.org/2000/svg" xmlns:xlink="http://www.w3.org/1999/xlink" x="0px" y="0px"
	 viewBox="0 0 4917.3 4394" style="enable-background:new 0 0 4917.3 4394;" xml:space="preserve">
<style type="text/css">
	.st0{fill:#EEA200;stroke:#FF40FF;stroke-miterlimit:10;}
	.st1{fill:none;}
	.st2{enable-background:new    ;}
	.st3{fill:#F4F5F7;}
	.st4{fill:#020000;}
	.st5{fill:none;stroke:#000000;stroke-width:0.3;}
</style>
<g>
	<rect x="10.5" y="-38.6" class="st0" width="4896.3" height="3900.9"/>
	<rect x="-338.9" y="2987.2" class="st1" width="4170.4" height="755.5"/>
	<g class="st2">
		<path class="st3" d="M529.4,2987.3h306l410.7,750.5H996.3l-74.3-133.9H438.3l-72,133.9H107.5L529.4,2987.3z M842.2,3447.4
			l-162-299.3l-159.8,299.3H842.2z"/>
		<path class="st3" d="M2176.6,3040.1c58.5,47.3,77.6,126,77.6,318.4c0,196.9-15.8,272.3-67.5,320.7c-54,50.6-132.8,64.1-382.6,64.1
			c-318.4,0-370.2-7.9-423.1-66.4c-46.1-51.8-59.6-122.6-59.6-316.2c0-192.4,21.4-275.7,85.5-322.9c55.1-41.6,158.6-56.3,388.2-56.3
			C2032.6,2981.6,2121.5,2995.1,2176.6,3040.1z M1536.4,3369.8c0,184.5,14.6,195.8,257.7,195.8c124.9,0,182.3-9,210.4-32.6
			c29.3-24.8,34.9-55.1,34.9-178.9c0-186.8-13.5-198-252-198C1552.2,3156,1536.4,3169.5,1536.4,3369.8z"/>
		<path class="st3" d="M3298.4,3737.7h-877.6v-218.3c-2.3-76.5,23.6-126,81-157.5c41.6-20.3,57.4-22.5,172.1-32.6l285.8-21.4
			c52.9-4.5,74.3-7.9,91.1-14.6c24.8-9,37.1-32.6,37.1-72c0-37.1-11.3-61.9-30.4-70.9c-23.6-11.3-42.8-12.4-196.9-12.4
			c-127.1,0-159.8,2.2-186.8,13.5c-33.8,12.4-46.1,37.1-46.1,88.9v20.3h-207v-61.9c0-63,1.1-73.1,12.4-104.6
			c20.3-56.3,72-88.9,155.3-97.9c67.5-7.9,162-11.3,282.4-11.3c218.3,0,295.9,7.9,348.8,34.9c57.4,29.3,79.9,84.4,79.9,200.3
			c0,119.3-21.4,172.1-84.4,207c-36,20.3-84.4,30.4-180,36l-283.5,19.1c-78.8,6.8-84.4,7.9-97.9,15.8c-18,12.4-27,31.5-27,59.6
			c0,6.8,0,18,1.1,28.1h670.6V3737.7z"/>
	</g>
	<g class="st2">
		<path d="M67.8,3981.5c0,8.1-0.7,11.8-3,15c-3.3,4.7-8.8,6.6-18.7,6.6c-8.8,0-15-1.5-18.2-4.6c-3-2.7-3.9-6.2-3.9-13.9
			c0-3.5,0-5.4,0.1-8.1h7.9v1.3v5.5c0,11.4,1.6,12.8,14,12.8c11.9,0,13.9-2.3,13.9-16v-48.6h8V3981.5z"/>
		<path d="M128.5,3933.1c6,2.5,9.2,7.7,10.5,16.9c0.3,3.2,0.4,4.9,0.4,13.9c0,16.6-0.1,19-1.3,24.4c-1.3,6.3-4.3,10.3-9.4,12.4
			c-4.5,1.9-8.1,2.3-18.5,2.3c-12.4,0-15.8-0.4-20.4-2.3c-5.1-2.2-8.1-6.2-9.4-12.4c-1.2-5.5-1.3-7.9-1.3-24.3
			c0-14.7,0.6-18.9,3.5-24.3c2.3-4.2,6.5-7,12.4-8.2c2.5-0.4,8.1-0.7,14.2-0.7C120.1,3930.8,124.4,3931.3,128.5,3933.1z
			 M90.7,3941.1c-2.1,2.4-3.1,5.6-3.5,11.6c-0.1,1.5-0.1,1.5-0.1,14.2c0,14.6,0,14.6,0.6,18.7c0.7,4.9,2.7,7.8,5.9,9.1
			c2.9,1.2,5.8,1.5,15.3,1.5c12.9,0,16.4-0.6,18.9-3.4c2.1-2.4,3.1-5.6,3.5-11.6c0.1-1.5,0.1-1.5,0.1-14.3c0-14.5,0-14.5-0.6-18.6
			c-0.7-4.9-2.7-7.8-5.9-9.1c-2.9-1.2-5.9-1.5-15.3-1.5C96.7,3937.7,93.2,3938.3,90.7,3941.1z"/>
		<path d="M192.7,3950.7c0-5.2-0.3-7.2-1.5-9.1c-1.9-3.1-5.2-3.9-14.7-3.9c-11,0-14.7,0.6-17,3.2c-1.7,1.9-2.5,4.9-2.5,9.3
			c0,6.4,1.5,9.5,5.1,10.9c2.3,0.8,2.9,1,14.6,1.5c13,0.6,17,1.4,20.2,3.9c3.7,2.9,5.1,7.2,5.1,15.7c0,9.7-1.7,14.7-5.9,17.5
			c-4,2.5-9,3.3-23.4,3.3c-9.9,0-13.2-0.5-17.3-2.9c-2.8-1.6-5-5-5.7-8.6c-0.6-3.1-0.8-5.1-1-11.1h8c0.1,7.6,0.2,9,1.6,11.6
			c1.9,3.6,4.2,4.1,17,4.1c17.1,0,18.9-1.5,18.9-14.6c0-5.9-1.2-8.7-4.3-10c-2-0.8-2-0.8-15-1.6c-13.2-0.6-14.1-0.8-17.6-2.4
			c-5.7-2.9-8.1-7.6-8.1-16.6c0-8.3,1.7-13.3,5.3-16c4-3.2,9.1-4.1,21.2-4.1c13.4,0,18.8,1.4,22.1,5.8c2.2,3,3.1,6.6,3.1,12.9v1.2
			H192.7z"/>
		<path d="M254.7,3950.7c0-5.2-0.3-7.2-1.5-9.1c-1.9-3.1-5.2-3.9-14.7-3.9c-11,0-14.7,0.6-17,3.2c-1.7,1.9-2.5,4.9-2.5,9.3
			c0,6.4,1.5,9.5,5.1,10.9c2.3,0.8,2.9,1,14.6,1.5c13,0.6,17,1.4,20.2,3.9c3.7,2.9,5.1,7.2,5.1,15.7c0,9.7-1.7,14.7-5.9,17.5
			c-4,2.5-9,3.3-23.4,3.3c-9.9,0-13.2-0.5-17.3-2.9c-2.8-1.6-5-5-5.7-8.6c-0.6-3.1-0.8-5.1-1-11.1h8c0.1,7.6,0.2,9,1.6,11.6
			c1.9,3.6,4.2,4.1,17,4.1c17.1,0,18.9-1.5,18.9-14.6c0-5.9-1.2-8.7-4.4-10c-2-0.8-2-0.8-15-1.6c-13.2-0.6-14.1-0.8-17.6-2.4
			c-5.7-2.9-8.1-7.6-8.1-16.6c0-8.3,1.7-13.3,5.3-16c4-3.2,9.1-4.1,21.2-4.1c13.4,0,18.8,1.4,22.1,5.8c2.2,3,3.1,6.6,3.1,12.9v1.2
			H254.7z"/>
		<path d="M330.2,3931.5v49.5c0,8.5-0.8,12.1-3.6,15.6c-4.1,5-9.3,6.4-24.9,6.4c-9.4,0-13.4-0.4-17-1.8c-8.1-3-10.5-7.7-10.5-20.2
			v-49.5h8v49.5c0,5.6,0.4,8.6,1.5,10.4c2.1,3.6,6.3,4.7,17.6,4.7c18.9,0,21-1.6,21-15.1v-49.5H330.2z"/>
		<path d="M350.2,3987.3l-5.4,15h-8.5l25.9-70.8h11.2l26.4,70.8h-8.4l-5.5-15H350.2z M367.9,3938l-15.5,43h31.2L367.9,3938z"/>
		<path d="M488.6,3978.6c0,12.6-0.4,15.2-3.4,18.9c-2.9,3.6-7.7,5.1-16.9,5.4c-2.7,0.1-6.9,0.1-10.6,0.1c-10,0-14-0.8-18.5-3.8
			c-3.3-2.2-5.8-6.9-6.6-12c-0.6-4.2-1.2-12.9-1.2-20.3c0-15.5,0-17.1,0.7-21c1.2-7.2,6.6-12.6,14.3-14.1c3.9-0.7,8.6-1.1,18.1-1.1
			c8.9,0,12.2,0.5,15.8,2.5c3.7,2,6.2,6.2,6.7,11.2c0.2,2.2,0.3,3.6,0.5,8.6h-8c-0.1-7.5-0.4-9.7-1.7-11.9
			c-1.8-2.9-4.9-3.7-13.6-3.7c-9.9,0-16.2,0.5-18.8,1.6c-4.5,2-5.8,5.8-5.8,16.8c0,39.9,0.1,40.2,19.6,40.2
			c19.1,0,21.2-1.4,21.2-13.5v-4H488.6z"/>
		<path d="M546.7,3933.1c6,2.5,9.2,7.7,10.5,16.9c0.3,3.2,0.4,4.9,0.4,13.9c0,16.6-0.1,19-1.3,24.4c-1.3,6.3-4.4,10.3-9.4,12.4
			c-4.5,1.9-8.1,2.3-18.5,2.3c-12.4,0-15.8-0.4-20.4-2.3c-5.1-2.2-8.1-6.2-9.4-12.4c-1.2-5.5-1.3-7.9-1.3-24.3
			c0-14.7,0.6-18.9,3.5-24.3c2.3-4.2,6.5-7,12.4-8.2c2.5-0.4,8.1-0.7,14.2-0.7C538.3,3930.8,542.6,3931.3,546.7,3933.1z
			 M508.9,3941.1c-2.1,2.4-3.1,5.6-3.5,11.6c-0.1,1.5-0.1,1.5-0.1,14.2c0,14.6,0,14.6,0.6,18.7c0.7,4.9,2.7,7.8,5.9,9.1
			c2.9,1.2,5.8,1.5,15.3,1.5c12.9,0,16.4-0.6,18.9-3.4c2.1-2.4,3.1-5.6,3.5-11.6c0.1-1.5,0.1-1.5,0.1-14.3c0-14.5,0-14.5-0.6-18.6
			c-0.7-4.9-2.7-7.8-5.9-9.1c-2.9-1.2-5.9-1.5-15.3-1.5C514.9,3937.7,511.4,3938.3,508.9,3941.1z"/>
		<path d="M577.2,3994.9h36.4v7.4h-44.3v-70.8h8V3994.9z"/>
		<path d="M628.6,3994.9H665v7.4h-44.3v-70.8h8V3994.9z"/>
		<path d="M680.1,4002.3h-8v-70.8h8V4002.3z"/>
		<path d="M753.8,4002.3h-13l-29.7-48.2l-4.8-8l-2.4-3.9l-2.3-3.9h-0.2l0.1,2.7v2.7v5.3v53.4h-8v-70.8h13l25.8,42.2l6.8,11l3.4,5.5
			l3.3,5.5h0.2l-0.1-2.7v-2.7v-5.3v-53.7h8V4002.3z"/>
		<path d="M793.8,3931.5h32.7c10.3,0,16,1.8,19.8,6.2c4.7,5.4,6.2,11.7,6.2,26.2c0,17.3-0.7,23.1-3.5,28.2c-2.8,5-6.4,7.7-12.1,9
			c-3.2,0.7-6.4,1.2-8.4,1.2h-34.7V3931.5z M824.8,3995.4c7.7,0,13.3-1.6,15.7-4.5c3.1-3.8,4-9,4-22.6c0-17.1-0.6-21.1-3.7-25.2
			c-2.5-3.4-6.6-4.7-14.3-4.7h-24.7v57H824.8z"/>
		<path d="M919.4,3931.5v49.5c0,8.5-0.8,12.1-3.6,15.6c-4.1,5-9.3,6.4-24.9,6.4c-9.4,0-13.4-0.4-17-1.8c-8.1-3-10.5-7.7-10.5-20.2
			v-49.5h8v49.5c0,5.6,0.4,8.6,1.5,10.4c2.1,3.6,6.3,4.7,17.6,4.7c18.9,0,21-1.6,21-15.1v-49.5H919.4z"/>
		<path d="M940.4,3963h34.5v6.7h-34.5v32.6h-8v-70.8h43.4v6.9h-35.4V3963z"/>
		<path d="M1032.9,3933.1c6,2.5,9.2,7.7,10.5,16.9c0.3,3.2,0.4,4.9,0.4,13.9c0,16.6-0.1,19-1.3,24.4c-1.3,6.3-4.3,10.3-9.4,12.4
			c-4.5,1.9-8.1,2.3-18.5,2.3c-12.4,0-15.8-0.4-20.4-2.3c-5.1-2.2-8.1-6.2-9.4-12.4c-1.2-5.5-1.3-7.9-1.3-24.3
			c0-14.7,0.6-18.9,3.5-24.3c2.3-4.2,6.5-7,12.4-8.2c2.5-0.4,8.1-0.7,14.2-0.7C1024.6,3930.8,1028.8,3931.3,1032.9,3933.1z
			 M995.2,3941.1c-2.1,2.4-3.1,5.6-3.5,11.6c-0.1,1.5-0.1,1.5-0.1,14.2c0,14.6,0,14.6,0.6,18.7c0.7,4.9,2.7,7.8,5.9,9.1
			c2.9,1.2,5.8,1.5,15.3,1.5c12.9,0,16.4-0.6,18.9-3.4c2.1-2.4,3.1-5.6,3.5-11.6c0.1-1.5,0.1-1.5,0.1-14.3c0-14.5,0-14.5-0.6-18.6
			c-0.7-4.9-2.7-7.8-5.9-9.1c-2.9-1.2-5.9-1.5-15.3-1.5C1001.1,3937.7,997.6,3938.3,995.2,3941.1z"/>
		<path d="M1111.1,3931.5v49.5c0,8.5-0.8,12.1-3.6,15.6c-4.1,5-9.3,6.4-24.9,6.4c-9.4,0-13.4-0.4-17-1.8c-8.1-3-10.5-7.7-10.5-20.2
			v-49.5h8v49.5c0,5.6,0.4,8.6,1.5,10.4c2.1,3.6,6.3,4.7,17.6,4.7c18.9,0,21-1.6,21-15.1v-49.5H1111.1z"/>
		<path d="M1124.2,3931.5h33.6c15.2,0,20.7,5.4,20.7,20.4c0,12.8-2.8,17.1-12.2,18.7v0.1c7.3,0.4,11.4,5.3,11.2,13.7v17.9h-8v-16.1
			c0.2-9-3.8-12.6-13.4-12.3h-24.1v28.4h-8V3931.5z M1155.2,3966.9c11.7,0,15.4-3.1,15.4-12.6c0-7.3-0.4-10.4-1.9-12.4
			c-1.6-2.3-5.1-3.5-10.7-3.5h-25.8v28.5H1155.2z"/>
	</g>
	<g class="st2">
		<path d="M84.3,4094.5c0.2,3,0.2,3.3,0.2,7.6c0,12.9-0.4,16.6-2.7,20.4c-1.7,3.2-4.6,5.3-8.6,6.6c-2.9,0.8-8.6,1.3-17.5,1.3
			c-13.9,0-18.9-1.1-23.9-5.2c-3.2-2.7-5.5-8.3-5.8-14.2c-0.1-3.2-0.1-3.8-0.2-17.6v-3c0-12.7,0.8-18.1,3.4-23.3
			c2.3-4.6,6.4-7.2,12.4-8.3c2.3-0.4,6.9-0.6,13.4-0.6c15.9,0,18.7,0.4,23.6,3.5c2.7,1.7,4.7,5,5.3,8.6c0.3,2.5,0.4,3.9,0.4,9.2
			h-7.9c-0.1-13.7-1.3-14.4-22.5-14.4c-12.2,0-16.1,1.2-18.1,5.6c-1.6,3.5-2,8.2-2,22.6c0,18.5,0.2,21.2,1.9,24.7
			c2.2,4.5,6.6,5.6,21.3,5.6c18,0,19.5-1.4,19.5-18c0-0.7,0-2.3-0.1-4.1H53.9v-6.9H84.3z"/>
		<path d="M103.1,4114.6l-5.4,15h-8.5l25.9-70.8h11.2l26.4,70.8h-8.4l-5.5-15H103.1z M120.9,4065.3l-15.5,43h31.2L120.9,4065.3z"/>
		<path d="M161.2,4058.8h31.3c9,0,11.7,0.4,14.5,2.1c4.7,2.8,6.5,7.5,6.5,16.8c0,8.8-2.1,12.4-9,14.9v0.2c8.5,2,11.2,6,11.2,16.9
			c0,8.8-2.3,14.6-6.8,17.3c-2.8,1.6-7.7,2.7-13.2,2.7h-34.6V4058.8z M190.1,4090c6.7,0,8.9-0.3,11.2-1.7c3.1-1.7,4.1-4.5,4.1-11
			c0-6.2-1.1-8.9-4-10.5c-1.7-0.8-3.6-1.1-9.2-1.1h-23.1v24.3H190.1z M186.1,4122.7c11.8,0,14.5-0.2,17.2-1.4
			c3.2-1.4,4.5-4.3,4.5-10.9c0-6.8-1.1-10-3.7-11.8c-2.5-1.6-3.6-1.7-14.3-1.7h-20.6v25.8H186.1z"/>
		<path d="M226.6,4058.8h33.6c15.2,0,20.7,5.4,20.7,20.4c0,12.8-2.8,17.1-12.2,18.7v0.1c7.3,0.4,11.4,5.3,11.2,13.7v17.9h-8v-16.1
			c0.2-9-3.8-12.6-13.4-12.3h-24.1v28.4h-8V4058.8z M257.6,4094.3c11.7,0,15.4-3.1,15.4-12.6c0-7.3-0.4-10.4-1.9-12.4
			c-1.6-2.3-5.1-3.5-10.7-3.5h-25.8v28.5H257.6z"/>
		<path d="M300.1,4129.6h-8v-70.8h8V4129.6z"/>
		<path d="M321.5,4089.7h35.9v6.7h-35.9v26.3h37.5v6.9h-45.4v-70.8h45.4v6.9h-37.5V4089.7z"/>
		<path d="M377.2,4122.2h36.4v7.4h-44.3v-70.8h8V4122.2z"/>
		<path d="M428.6,4122.2H465v7.4h-44.3v-70.8h8V4122.2z"/>
		<path d="M484.2,4114.6l-5.4,15h-8.5l25.9-70.8h11.2l26.4,70.8h-8.4l-5.5-15H484.2z M501.9,4065.3l-15.5,43h31.2L501.9,4065.3z"/>
		<path d="M622.1,4058.8l-25,70.8h-11.5l-25.2-70.8h8.5l18.9,53.5c0.7,2.3,1.6,4.7,2.3,7.1c0.5,1.3,0.6,1.6,1.3,3.8h0.1
			c1.2-3.9,1.9-6.2,3.5-10.8l18.6-53.6H622.1z"/>
		<path d="M637.9,4129.6h-8v-70.8h8V4129.6z"/>
		<path d="M659.3,4089.7h35.9v6.7h-35.9v26.3h37.5v6.9h-45.4v-70.8h45.4v6.9h-37.5V4089.7z"/>
		<path d="M707,4058.8h33.6c15.2,0,20.7,5.4,20.7,20.4c0,12.8-2.8,17.1-12.2,18.7v0.1c7.3,0.4,11.4,5.3,11.2,13.7v17.9h-8v-16.1
			c0.2-9-3.8-12.6-13.4-12.3H715v28.4h-8V4058.8z M738,4094.3c11.7,0,15.4-3.1,15.4-12.6c0-7.3-0.4-10.4-1.9-12.4
			c-1.6-2.3-5.1-3.5-10.7-3.5H715v28.5H738z"/>
		<path d="M820.5,4060.4c6,2.5,9.2,7.7,10.5,16.9c0.3,3.2,0.4,4.9,0.4,13.9c0,16.6-0.1,19-1.3,24.4c-1.3,6.3-4.3,10.3-9.4,12.4
			c-4.5,1.9-8.1,2.3-18.5,2.3c-12.4,0-15.8-0.4-20.4-2.3c-5.1-2.2-8.1-6.2-9.4-12.4c-1.2-5.5-1.3-7.9-1.3-24.3
			c0-14.7,0.6-18.9,3.5-24.3c2.3-4.2,6.5-7,12.4-8.2c2.5-0.4,8.1-0.7,14.2-0.7C812.2,4058.1,816.4,4058.6,820.5,4060.4z
			 M782.8,4068.4c-2.1,2.4-3.1,5.6-3.5,11.6c-0.1,1.5-0.1,1.5-0.1,14.2c0,14.6,0,14.6,0.6,18.7c0.7,4.9,2.7,7.9,5.9,9.1
			c2.9,1.2,5.8,1.5,15.3,1.5c12.9,0,16.4-0.6,18.9-3.4c2.1-2.4,3.1-5.6,3.5-11.6c0.1-1.5,0.1-1.5,0.1-14.3c0-14.5,0-14.5-0.6-18.6
			c-0.7-4.9-2.7-7.9-5.9-9.1c-2.9-1.2-5.9-1.5-15.3-1.5C788.7,4065,785.2,4065.6,782.8,4068.4z"/>
	</g>
	<g>
		<g>
			<line class="st1" x1="33.5" y1="4300.2" x2="130.2" y2="4300.3"/>
			<rect x="33.5" y="4295.1" class="st4" width="96.7" height="10.2"/>
			<path class="st4" d="M96.3,4238.8c0-4.5,3.7-8.2,8.2-8.2s8.2,3.7,8.2,8.2s-3.7,8.2-8.2,8.2C99.9,4247,96.3,4243.3,96.3,4238.8"/>
			<path class="st4" d="M73.5,4238.8c0-4.5,3.7-8.2,8.2-8.2s8.2,3.7,8.2,8.2s-3.7,8.2-8.2,8.2S73.5,4243.3,73.5,4238.8"/>
			<path class="st4" d="M50.7,4238.8c0-4.5,3.7-8.2,8.2-8.2s8.2,3.7,8.2,8.2s-3.7,8.2-8.2,8.2S50.7,4243.3,50.7,4238.8"/>
			<path class="st4" d="M119.2,4290H43.9v-1l-18.4-103.2l8.2-1.4l2.4,13.6c2.3-0.5,3.8-1,6.1-1.9c0.9-0.3,1.9-0.7,3.1-1.1
				c1.4-0.9,2.3-1.4,3.1-1.9c1.2-0.6,1.7-0.9,3.7-2.9l0.5-0.4c0,0,0.1-0.1,0.4-0.3l0,0l3-2.6c0.8-0.7,1.6-1.6,2.4-2.6l0.3,0.2
				l0.6-0.5c2.9,3.4,5.8,5.5,5.8,5.5l0.5,0.4c2,1.9,2.5,2.2,3.7,2.9c0.8,0.4,1.7,0.9,3.1,1.8c3.5,1.2,4.5,1.3,7,1.5
				c1,0.1,2.1,0.2,3.5,0.3c4.4-0.3,5.5-0.8,9.2-2.2l1.1-0.4l1.9-1.3c1.8-1.2,2.2-1.5,5-3c0.8-0.8,3-3,5.4-5.8l1.2,1l0.1-0.1
				c0.1,0.2,0.3,0.4,0.4,0.5l4.6,4c0,0.1-0.1,0.1-0.1,0.2c0.1,0.1,0.1,0.1,0.1,0.1l0.7,0.6c1.8,1.8,2.4,2.1,3.8,2.7
				c1,0.4,2.1,1,3.7,2.1c1.2,0.4,2.2,0.8,3.1,1.1c1.9,0.7,3.2,1.2,4.9,1.6l2.5-13.2l8.2,1.5l-19,102.1l-0.4-0.1L119.2,4290
				L119.2,4290z M51,4281.7h61.3l14.1-75.9c-2.3-0.6-4-1.2-6.3-2c-1-0.4-2.1-0.8-3.4-1.3l-0.9-0.4c-1.4-0.9-2.3-1.4-3.2-1.8
				c-1.9-0.9-3.4-1.7-5.8-4.1c-0.2-0.2-0.5-0.4-0.9-0.7c-0.3,0.3-0.4,0.4-0.4,0.4l-0.9,0.6c-3,1.7-3.1,1.8-4.8,2.9l-3.1,2l-1.5,0.6
				c-4.4,1.7-6.1,2.3-11.6,2.7v0.1c-0.3,0-0.5-0.1-0.8-0.1c-0.7,0-1.4,0.1-2.1,0.1v-0.4c-0.7-0.1-1.3-0.1-1.8-0.1
				c-3.1-0.2-4.9-0.4-9.6-2.1l-0.9-0.4c-1.3-0.9-2.2-1.4-2.9-1.7c-1.7-0.9-2.9-1.6-5.4-4.1c-0.2-0.2-0.5-0.4-0.9-0.7
				c-0.5,0.5-1,0.8-1.2,1c-2.5,2.5-3.7,3.2-5.4,4.1c-0.7,0.4-1.6,0.9-2.9,1.7l-0.9,0.5c-1.4,0.5-2.5,0.9-3.5,1.3
				c-2.7,1-4.5,1.7-7.6,2.3L51,4281.7z"/>
		</g>
		<g>
			<polygon class="st4" points="553.4,4306.2 432.8,4306.2 492.5,4189 			"/>
			<path class="st4" d="M561.7,4311.2H424.5l68-133.4L561.7,4311.2z M441.1,4301.1h104l-52.5-101L441.1,4301.1z"/>
			<polygon class="st4" points="410.5,4290.8 405,4278.4 476.8,4246.4 405,4214.5 410.5,4202.1 493.4,4239 575.2,4202.7 580.7,4215 
				510.1,4246.4 580.7,4277.9 575.2,4290.2 493.4,4253.9 			"/>
		</g>
		<g>
			<path class="st4" d="M340.3,4312.7h-137v-136.3h137V4312.7z M214.1,4301.9h115.3v-114.6H214.1V4301.9z M271.6,4297.3
				c-29.3,0-53.2-23.9-53.2-53.2c0-29.3,23.9-53.2,53.2-53.2s53.2,23.9,53.2,53.2C324.8,4273.4,300.9,4297.3,271.6,4297.3
				 M271.6,4201.7c-23.3,0-42.3,19-42.3,42.3c0,23.4,19,42.4,42.3,42.4c23.4,0,42.4-19,42.4-42.4
				C314,4220.7,295,4201.7,271.6,4201.7"/>
		</g>
		<g>
			<path class="st4" d="M739.3,4312.7c-37.6,0-68.2-30.6-68.2-68.1c0-37.6,30.6-68.1,68.2-68.1c37.6,0,68.2,30.6,68.2,68.1
				C807.4,4282.1,776.9,4312.7,739.3,4312.7 M739.3,4187.2c-31.6,0-57.3,25.7-57.3,57.3s25.7,57.3,57.3,57.3s57.3-25.7,57.3-57.3
				S770.9,4187.2,739.3,4187.2"/>
			<polygon class="st4" points="651.3,4291.5 645.4,4278.3 722,4244.3 645.4,4210.2 651.3,4197 739.7,4236.4 826.8,4197.6 
				832.7,4210.8 757.4,4244.3 832.7,4277.7 826.8,4290.9 739.7,4252.1 			"/>
		</g>
		<g>
			<path class="st4" d="M1050.3,4306.4h-153l1.2-5.9c1.1-5.4,11.2-52.8,27.8-64.6c12.6-9,26.1-8.7,26.7-8.6h77.4l-4.3-34.7h-90.3
				v-9.9h99.1L1050.3,4306.4z M909.6,4296.5h129.5l-7.4-59.3h-78.8c-0.2,0-11.1-0.2-20.8,6.8
				C922.1,4251.1,913.5,4280.3,909.6,4296.5"/>
			<path class="st4" d="M968.2,4266.1c0-5.4,4.4-9.8,9.8-9.8s9.8,4.4,9.8,9.8s-4.4,9.8-9.8,9.8
				C972.6,4275.9,968.2,4271.5,968.2,4266.1"/>
		</g>
	</g>
</g>
<g>
	<line class="st5" x1="-338.9" y1="-93.1" x2="-338.9" y2="-57.1"/>
	<line class="st5" x1="-392.9" y1="-39.1" x2="-356.9" y2="-39.1"/>
	<line class="st5" x1="-392.9" y1="4312.7" x2="-356.9" y2="4312.7"/>
	<line class="st5" x1="-338.9" y1="4366.7" x2="-338.9" y2="4330.7"/>
	<line class="st5" x1="4907.3" y1="-93.1" x2="4907.3" y2="-57.1"/>
	<line class="st5" x1="4961.3" y1="-39.1" x2="4925.3" y2="-39.1"/>
	<line class="st5" x1="4961.3" y1="4312.7" x2="4925.3" y2="4312.7"/>
	<line class="st5" x1="4907.3" y1="4366.7" x2="4907.3" y2="4330.7"/>
</g>
</svg>
