<?xml version="1.0" encoding="utf-8"?>
<!-- Generator: Adobe Illustrator 25.4.0, SVG Export Plug-In . SVG Version: 6.00 Build 0)  -->
<svg version="1.1" id="Calque_1" xmlns="http://www.w3.org/2000/svg" xmlns:xlink="http://www.w3.org/1999/xlink" x="0px" y="0px"
	 viewBox="0 0 4000 4000" style="enable-background:new 0 0 4000 4000;" xml:space="preserve">
<style type="text/css">
	.st0{fill:#EEA200;}
	.st1{fill:none;}
	.st2{fill:#FFFFFF;}
	.st3{font-family:'EurostileExt-Bla';}
	.st4{font-size:1125.1527px;}
	.st5{font-family:'Eurostile-Reg';}
	.st6{font-size:106.0952px;}
	.st7{fill:#020000;}
</style>
<g>
	<rect x="218.5" y="255.4" class="st0" width="3563" height="2030.9"/>
	<rect x="-141.4" y="1428.7" class="st1" width="4170.4" height="755.5"/>
	<text transform="matrix(1 0 0 1 297.1624 2179.1536)" class="st2 st3 st4">A02</text>
	<text transform="matrix(1 0 0 1 218.8034 2443.698)" class="st5 st6">JOSSUA COLLIN DUFOUR</text>
	<text transform="matrix(1 0 0 1 218.8034 2571.0081)" class="st5 st6">GABRIELLA VIERO</text>
	<g>
		<g>
			<line class="st1" x1="231" y1="2741.7" x2="327.8" y2="2741.7"/>
			<rect x="231" y="2736.6" class="st7" width="96.7" height="10.2"/>
			<path class="st7" d="M293.8,2680.2c0-4.5,3.7-8.2,8.2-8.2s8.2,3.7,8.2,8.2s-3.7,8.2-8.2,8.2
				C297.5,2688.5,293.8,2684.8,293.8,2680.2"/>
			<path class="st7" d="M271,2680.2c0-4.5,3.7-8.2,8.2-8.2s8.2,3.7,8.2,8.2s-3.7,8.2-8.2,8.2S271,2684.8,271,2680.2"/>
			<path class="st7" d="M248.2,2680.2c0-4.5,3.7-8.2,8.2-8.2c4.5,0,8.2,3.7,8.2,8.2s-3.7,8.2-8.2,8.2S248.2,2684.8,248.2,2680.2"/>
			<path class="st7" d="M316.8,2731.5h-75.4v-1L223,2627.3l8.2-1.4l2.4,13.6c2.3-0.5,3.8-1,6.1-1.9c0.9-0.3,1.9-0.7,3.1-1.1
				c1.4-0.9,2.3-1.4,3.1-1.9c1.2-0.6,1.7-0.9,3.7-2.9l0.5-0.4c0,0,0.1-0.1,0.4-0.3l0,0l3-2.6c0.8-0.7,1.6-1.6,2.4-2.6l0.3,0.2
				l0.6-0.5c2.9,3.4,5.8,5.5,5.8,5.5l0.5,0.4c2,1.9,2.5,2.2,3.7,2.9c0.8,0.4,1.7,0.9,3.1,1.8c3.5,1.2,4.5,1.3,7,1.5
				c1,0.1,2.1,0.2,3.5,0.3c4.4-0.3,5.5-0.8,9.2-2.2l1.1-0.4l1.9-1.3c1.8-1.2,2.2-1.5,5-3c0.8-0.8,3-3,5.4-5.8l1.2,1l0.1-0.1
				c0.1,0.2,0.3,0.4,0.4,0.5l4.6,4c0,0.1-0.1,0.1-0.1,0.2c0.1,0.1,0.1,0.1,0.1,0.1l0.7,0.6c1.8,1.8,2.4,2.1,3.8,2.7
				c1,0.4,2.1,1,3.7,2.1c1.2,0.4,2.2,0.8,3.1,1.1c1.9,0.7,3.2,1.2,4.9,1.6l2.5-13.2l8.2,1.5l-19,102.1l-0.4-0.1L316.8,2731.5
				L316.8,2731.5z M248.6,2723.2h61.3l14.1-75.9c-2.3-0.6-4-1.2-6.3-2c-1-0.4-2.1-0.8-3.4-1.3l-0.9-0.4c-1.4-0.9-2.3-1.4-3.2-1.8
				c-1.9-0.9-3.4-1.7-5.8-4.1c-0.2-0.2-0.5-0.4-0.9-0.7c-0.3,0.3-0.4,0.4-0.4,0.4l-0.9,0.6c-3,1.7-3.1,1.8-4.8,2.9l-3.1,2l-1.5,0.6
				c-4.4,1.7-6.1,2.3-11.6,2.7l0,0.1c-0.3,0-0.5-0.1-0.8-0.1c-0.7,0-1.4,0.1-2.1,0.1l0-0.4c-0.7-0.1-1.3-0.1-1.8-0.1
				c-3.1-0.2-4.9-0.4-9.6-2.1l-0.9-0.4c-1.3-0.9-2.2-1.4-2.9-1.7c-1.7-0.9-2.9-1.6-5.4-4.1c-0.2-0.2-0.5-0.4-0.9-0.7
				c-0.5,0.5-1,0.8-1.2,1c-2.5,2.5-3.7,3.2-5.4,4.1c-0.7,0.4-1.6,0.9-2.9,1.7l-0.9,0.5c-1.4,0.5-2.5,0.9-3.5,1.3
				c-2.7,1-4.6,1.7-7.6,2.3L248.6,2723.2z"/>
		</g>
		<g>
			<polygon class="st7" points="750.9,2747.6 630.4,2747.6 690.1,2630.4 			"/>
			<path class="st7" d="M759.3,2752.7H622.1l68-133.4L759.3,2752.7z M638.6,2742.6h104l-52.5-101L638.6,2742.6z"/>
			<polygon class="st7" points="608,2732.2 602.5,2719.9 674.4,2687.9 602.5,2655.9 608,2643.6 691,2680.5 772.7,2644.1 
				778.2,2656.5 707.6,2687.9 778.2,2719.3 772.7,2731.7 691,2695.3 			"/>
		</g>
		<g>
			<path class="st7" d="M537.8,2754.2h-137v-136.3h137V2754.2z M411.6,2743.3h115.3v-114.6H411.6V2743.3z M469.1,2738.7
				c-29.3,0-53.2-23.9-53.2-53.2c0-29.3,23.9-53.2,53.2-53.2s53.2,23.9,53.2,53.2S498.5,2738.7,469.1,2738.7 M469.1,2643.2
				c-23.4,0-42.3,19-42.3,42.3c0,23.4,19,42.4,42.3,42.4c23.4,0,42.4-19,42.4-42.4C511.5,2662.2,492.5,2643.2,469.1,2643.2"/>
		</g>
		<g>
			<path class="st7" d="M936.8,2754.2c-37.6,0-68.2-30.6-68.2-68.1c0-37.6,30.6-68.1,68.2-68.1s68.2,30.6,68.2,68.1
				C1005,2723.6,974.4,2754.2,936.8,2754.2 M936.8,2628.7c-31.6,0-57.3,25.7-57.3,57.3s25.7,57.3,57.3,57.3s57.3-25.7,57.3-57.3
				C994.2,2654.4,968.4,2628.7,936.8,2628.7"/>
			<polygon class="st7" points="848.8,2733 842.9,2719.8 919.5,2685.7 842.9,2651.6 848.8,2638.5 937.2,2677.8 1024.3,2639.1 
				1030.2,2652.2 955,2685.7 1030.2,2719.2 1024.3,2732.4 937.2,2693.6 			"/>
		</g>
		<g>
			<path class="st7" d="M1247.9,2747.9h-153l1.2-5.9c1.1-5.4,11.2-52.8,27.8-64.6c12.6-9,26.1-8.7,26.7-8.6h77.4l-4.3-34.7h-90.3
				v-9.9h99.1L1247.9,2747.9z M1107.2,2738h129.5l-7.4-59.3h-78.8c-0.2,0-11.1-0.2-20.8,6.8C1119.7,2692.5,1111,2721.8,1107.2,2738"
				/>
			<path class="st7" d="M1165.7,2707.6c0-5.4,4.4-9.8,9.8-9.8c5.4,0,9.8,4.4,9.8,9.8c0,5.4-4.4,9.8-9.8,9.8
				C1170.1,2717.3,1165.7,2713,1165.7,2707.6"/>
		</g>
	</g>
</g>
</svg>
