<?xml version="1.0" encoding="utf-8"?>
<!-- Generator: Adobe Illustrator 25.4.0, SVG Export Plug-In . SVG Version: 6.00 Build 0)  -->
<svg version="1.1" id="Calque_1" xmlns="http://www.w3.org/2000/svg" xmlns:xlink="http://www.w3.org/1999/xlink" x="0px" y="0px"
	 viewBox="0 0 4917.3 4394" style="enable-background:new 0 0 4917.3 4394;" xml:space="preserve">
<style type="text/css">
	.st0{fill:#EEA200;stroke:#FF40FF;stroke-miterlimit:10;}
	.st1{fill:none;}
	.st2{fill:#F4F5F7;}
	.st3{font-family:'EurostileExt-Bla';}
	.st4{font-size:1125.1527px;}
	.st5{font-family:'Eurostile-Reg';}
	.st6{font-size:106.0952px;}
	.st7{fill:#020000;}
</style>
<g>
	<rect x="10.5" y="-38.6" class="st0" width="4896.3" height="3900.9"/>
	<rect x="-338.9" y="2987.2" class="st1" width="4170.4" height="755.5"/>
	<text transform="matrix(1 0 0 1 99.5899 3737.7336)" class="st2 st3 st4">A02</text>
	<text transform="matrix(1 0 0 1 21.2307 4002.2778)" class="st5 st6">JOSSUA COLLIN DUFOUR</text>
	<text transform="matrix(1 0 0 1 21.2307 4129.5879)" class="st5 st6">GABRIELLA VIERO</text>
	<g>
		<g>
			<line class="st1" x1="33.5" y1="4300.2" x2="130.2" y2="4300.3"/>
			<rect x="33.5" y="4295.1" class="st7" width="96.7" height="10.2"/>
			<path class="st7" d="M96.3,4238.8c0-4.5,3.7-8.2,8.2-8.2s8.2,3.7,8.2,8.2s-3.7,8.2-8.2,8.2C99.9,4247,96.3,4243.3,96.3,4238.8"/>
			<path class="st7" d="M73.5,4238.8c0-4.5,3.7-8.2,8.2-8.2s8.2,3.7,8.2,8.2s-3.7,8.2-8.2,8.2S73.5,4243.3,73.5,4238.8"/>
			<path class="st7" d="M50.7,4238.8c0-4.5,3.7-8.2,8.2-8.2s8.2,3.7,8.2,8.2s-3.7,8.2-8.2,8.2S50.7,4243.3,50.7,4238.8"/>
			<path class="st7" d="M119.2,4290H43.9v-1l-18.4-103.2l8.2-1.4l2.4,13.6c2.3-0.5,3.8-1,6.1-1.9c0.9-0.3,1.9-0.7,3.1-1.1
				c1.4-0.9,2.3-1.4,3.1-1.9c1.2-0.6,1.7-0.9,3.7-2.9l0.5-0.4c0,0,0.1-0.1,0.4-0.3l0,0l3-2.6c0.8-0.7,1.6-1.6,2.4-2.6l0.3,0.2
				l0.6-0.5c2.9,3.4,5.8,5.5,5.8,5.5l0.5,0.4c2,1.9,2.5,2.2,3.7,2.9c0.8,0.4,1.7,0.9,3.1,1.8c3.5,1.2,4.5,1.3,7,1.5
				c1,0.1,2.1,0.2,3.5,0.3c4.4-0.3,5.5-0.8,9.2-2.2l1.1-0.4l1.9-1.3c1.8-1.2,2.2-1.5,5-3c0.8-0.8,3-3,5.4-5.8l1.2,1l0.1-0.1
				c0.1,0.2,0.3,0.4,0.4,0.5l4.6,4c0,0.1-0.1,0.1-0.1,0.2c0.1,0.1,0.1,0.1,0.1,0.1l0.7,0.6c1.8,1.8,2.4,2.1,3.8,2.7
				c1,0.4,2.1,1,3.7,2.1c1.2,0.4,2.2,0.8,3.1,1.1c1.9,0.7,3.2,1.2,4.9,1.6l2.5-13.2l8.2,1.5l-19,102.1l-0.4-0.1L119.2,4290
				L119.2,4290z M51,4281.7h61.3l14.1-75.9c-2.3-0.6-4-1.2-6.3-2c-1-0.4-2.1-0.8-3.4-1.3l-0.9-0.4c-1.4-0.9-2.3-1.4-3.2-1.8
				c-1.9-0.9-3.4-1.7-5.8-4.1c-0.2-0.2-0.5-0.4-0.9-0.7c-0.3,0.3-0.4,0.4-0.4,0.4l-0.9,0.6c-3,1.7-3.1,1.8-4.8,2.9l-3.1,2l-1.5,0.6
				c-4.4,1.7-6.1,2.3-11.6,2.7v0.1c-0.3,0-0.5-0.1-0.8-0.1c-0.7,0-1.4,0.1-2.1,0.1v-0.4c-0.7-0.1-1.3-0.1-1.8-0.1
				c-3.1-0.2-4.9-0.4-9.6-2.1l-0.9-0.4c-1.3-0.9-2.2-1.4-2.9-1.7c-1.7-0.9-2.9-1.6-5.4-4.1c-0.2-0.2-0.5-0.4-0.9-0.7
				c-0.5,0.5-1,0.8-1.2,1c-2.5,2.5-3.7,3.2-5.4,4.1c-0.7,0.4-1.6,0.9-2.9,1.7l-0.9,0.5c-1.4,0.5-2.5,0.9-3.5,1.3
				c-2.7,1-4.5,1.7-7.6,2.3L51,4281.7z"/>
		</g>
		<g>
			<polygon class="st7" points="553.4,4306.2 432.8,4306.2 492.5,4189 			"/>
			<path class="st7" d="M561.7,4311.2H424.5l68-133.4L561.7,4311.2z M441.1,4301.1h104l-52.5-101L441.1,4301.1z"/>
			<polygon class="st7" points="410.5,4290.8 405,4278.4 476.8,4246.4 405,4214.5 410.5,4202.1 493.4,4239 575.2,4202.7 580.7,4215 
				510.1,4246.4 580.7,4277.9 575.2,4290.2 493.4,4253.9 			"/>
		</g>
		<g>
			<path class="st7" d="M340.3,4312.7h-137v-136.3h137V4312.7z M214.1,4301.9h115.3v-114.6H214.1V4301.9z M271.6,4297.3
				c-29.3,0-53.2-23.9-53.2-53.2c0-29.3,23.9-53.2,53.2-53.2s53.2,23.9,53.2,53.2C324.8,4273.4,300.9,4297.3,271.6,4297.3
				 M271.6,4201.7c-23.3,0-42.3,19-42.3,42.3c0,23.4,19,42.4,42.3,42.4c23.4,0,42.4-19,42.4-42.4
				C314,4220.7,295,4201.7,271.6,4201.7"/>
		</g>
		<g>
			<path class="st7" d="M739.3,4312.7c-37.6,0-68.2-30.6-68.2-68.1c0-37.6,30.6-68.1,68.2-68.1c37.6,0,68.2,30.6,68.2,68.1
				C807.4,4282.1,776.9,4312.7,739.3,4312.7 M739.3,4187.2c-31.6,0-57.3,25.7-57.3,57.3s25.7,57.3,57.3,57.3s57.3-25.7,57.3-57.3
				S770.9,4187.2,739.3,4187.2"/>
			<polygon class="st7" points="651.3,4291.5 645.4,4278.3 722,4244.3 645.4,4210.2 651.3,4197 739.7,4236.4 826.8,4197.6 
				832.7,4210.8 757.4,4244.3 832.7,4277.7 826.8,4290.9 739.7,4252.1 			"/>
		</g>
		<g>
			<path class="st7" d="M1050.3,4306.4h-153l1.2-5.9c1.1-5.4,11.2-52.8,27.8-64.6c12.6-9,26.1-8.7,26.7-8.6h77.4l-4.3-34.7h-90.3
				v-9.9h99.1L1050.3,4306.4z M909.6,4296.5h129.5l-7.4-59.3h-78.8c-0.2,0-11.1-0.2-20.8,6.8
				C922.1,4251.1,913.5,4280.3,909.6,4296.5"/>
			<path class="st7" d="M968.2,4266.1c0-5.4,4.4-9.8,9.8-9.8s9.8,4.4,9.8,9.8c0,5.4-4.4,9.8-9.8,9.8
				C972.6,4275.9,968.2,4271.5,968.2,4266.1"/>
		</g>
	</g>
</g>
</svg>
