<?xml version="1.0" encoding="utf-8"?>
<!-- Generator: Adobe Illustrator 25.4.0, SVG Export Plug-In . SVG Version: 6.00 Build 0)  -->
<svg version="1.1" id="Calque_1" xmlns="http://www.w3.org/2000/svg" xmlns:xlink="http://www.w3.org/1999/xlink" x="0px" y="0px"
	 viewBox="0 0 5225.4 2581.4" style="enable-background:new 0 0 5225.4 2581.4;" xml:space="preserve">
<style type="text/css">
	.st0{fill:#EEA200;stroke:#FF40FF;stroke-miterlimit:10;}
	.st1{fill:none;}
	.st2{fill:#F4F5F7;}
	.st3{font-family:'EurostileExt-Bla';}
	.st4{font-size:1125.1527px;}
	.st5{font-family:'Eurostile-Reg';}
	.st6{font-size:106.0952px;}
	.st7{fill:#020000;}
</style>
<g>
	<rect x="329.1" y="1.3" class="st0" width="4896.3" height="2030.9"/>
	<rect x="-30.8" y="1174.6" class="st1" width="4170.4" height="755.5"/>
	<text transform="matrix(1 0 0 1 407.7138 1925.1019)" class="st2 st3 st4">A02</text>
	<text transform="matrix(1 0 0 1 329.3548 2189.6462)" class="st5 st6">JOSSUA COLLIN DUFOUR</text>
	<text transform="matrix(1 0 0 1 329.3548 2316.9563)" class="st5 st6">GABRIELLA VIERO</text>
	<g>
		<g>
			<line class="st1" x1="341.6" y1="2487.6" x2="438.3" y2="2487.7"/>
			<rect x="341.6" y="2482.5" class="st7" width="96.7" height="10.2"/>
			<path class="st7" d="M404.4,2426.2c0-4.5,3.7-8.2,8.2-8.2s8.2,3.7,8.2,8.2s-3.7,8.2-8.2,8.2
				C408,2434.4,404.4,2430.7,404.4,2426.2"/>
			<path class="st7" d="M381.6,2426.2c0-4.5,3.7-8.2,8.2-8.2s8.2,3.7,8.2,8.2s-3.7,8.2-8.2,8.2S381.6,2430.7,381.6,2426.2"/>
			<path class="st7" d="M358.8,2426.2c0-4.5,3.7-8.2,8.2-8.2s8.2,3.7,8.2,8.2s-3.7,8.2-8.2,8.2S358.8,2430.7,358.8,2426.2"/>
			<path class="st7" d="M427.3,2477.4H352v-1l-18.4-103.2l8.2-1.4l2.4,13.6c2.3-0.5,3.8-1,6.1-1.9c0.9-0.3,1.9-0.7,3.1-1.1
				c1.4-0.9,2.3-1.4,3.1-1.9c1.2-0.6,1.7-0.9,3.7-2.9l0.5-0.4c0,0,0.1-0.1,0.4-0.3l0,0l3-2.6c0.8-0.7,1.6-1.6,2.4-2.6l0.3,0.2
				l0.6-0.5c2.9,3.4,5.8,5.5,5.8,5.5l0.5,0.4c2,1.9,2.5,2.2,3.7,2.9c0.8,0.4,1.7,0.9,3.1,1.8c3.5,1.2,4.5,1.3,7,1.5
				c1,0.1,2.1,0.2,3.5,0.3c4.4-0.3,5.5-0.8,9.2-2.2l1.1-0.4l1.9-1.3c1.8-1.2,2.2-1.5,5-3c0.8-0.8,3-3,5.4-5.8l1.2,1l0.1-0.1
				c0.1,0.2,0.3,0.4,0.4,0.5l4.6,4c0,0.1-0.1,0.1-0.1,0.2c0.1,0.1,0.1,0.1,0.1,0.1l0.7,0.6c1.8,1.8,2.4,2.1,3.8,2.7
				c1,0.4,2.1,1,3.7,2.1c1.2,0.4,2.2,0.8,3.1,1.1c1.9,0.7,3.2,1.2,4.9,1.6l2.5-13.2l8.2,1.5l-19,102.1l-0.4-0.1L427.3,2477.4
				L427.3,2477.4z M359.1,2469.1h61.3l14.1-75.9c-2.3-0.6-4-1.2-6.3-2c-1-0.4-2.1-0.8-3.4-1.3l-0.9-0.4c-1.4-0.9-2.3-1.4-3.2-1.8
				c-1.9-0.9-3.4-1.7-5.8-4.1c-0.2-0.2-0.5-0.4-0.9-0.7c-0.3,0.3-0.4,0.4-0.4,0.4l-0.9,0.6c-3,1.7-3.1,1.8-4.8,2.9l-3.1,2l-1.5,0.6
				c-4.4,1.7-6.1,2.3-11.6,2.7l0,0.1c-0.3,0-0.5-0.1-0.8-0.1c-0.7,0-1.4,0.1-2.1,0.1l0-0.4c-0.7-0.1-1.3-0.1-1.8-0.1
				c-3.1-0.2-4.9-0.4-9.6-2.1l-0.9-0.4c-1.3-0.9-2.2-1.4-2.9-1.7c-1.7-0.9-2.9-1.6-5.4-4.1c-0.2-0.2-0.5-0.4-0.9-0.7
				c-0.5,0.5-1,0.8-1.2,1c-2.5,2.5-3.7,3.2-5.4,4.1c-0.7,0.4-1.6,0.9-2.9,1.7l-0.9,0.5c-1.4,0.5-2.5,0.9-3.5,1.3
				c-2.7,1-4.5,1.7-7.6,2.3L359.1,2469.1z"/>
		</g>
		<g>
			<polygon class="st7" points="861.5,2493.6 740.9,2493.6 800.6,2376.4 			"/>
			<path class="st7" d="M869.8,2498.6H732.6l68-133.4L869.8,2498.6z M749.2,2488.5h104l-52.5-101L749.2,2488.5z"/>
			<polygon class="st7" points="718.6,2478.2 713.1,2465.8 784.9,2433.8 713.1,2401.9 718.6,2389.5 801.5,2426.4 883.3,2390.1 
				888.8,2402.4 818.2,2433.8 888.8,2465.3 883.3,2477.6 801.5,2441.3 			"/>
		</g>
		<g>
			<path class="st7" d="M648.4,2500.1h-137v-136.3h137V2500.1z M522.2,2489.3h115.3v-114.6H522.2V2489.3z M579.7,2484.7
				c-29.3,0-53.2-23.9-53.2-53.2c0-29.3,23.9-53.2,53.2-53.2c29.3,0,53.2,23.9,53.2,53.2S609,2484.7,579.7,2484.7 M579.7,2389.1
				c-23.3,0-42.3,19-42.3,42.3c0,23.4,19,42.4,42.3,42.4c23.4,0,42.4-19,42.4-42.4C622.1,2408.1,603.1,2389.1,579.7,2389.1"/>
		</g>
		<g>
			<path class="st7" d="M1047.4,2500.1c-37.6,0-68.2-30.6-68.2-68.1c0-37.6,30.6-68.1,68.2-68.1c37.6,0,68.2,30.6,68.2,68.1
				C1115.5,2469.5,1085,2500.1,1047.4,2500.1 M1047.4,2374.6c-31.6,0-57.3,25.7-57.3,57.3s25.7,57.3,57.3,57.3
				c31.6,0,57.3-25.7,57.3-57.3S1079,2374.6,1047.4,2374.6"/>
			<polygon class="st7" points="959.4,2478.9 953.5,2465.7 1030.1,2431.7 953.5,2397.6 959.4,2384.4 1047.8,2423.8 1134.9,2385 
				1140.8,2398.2 1065.5,2431.7 1140.8,2465.1 1134.9,2478.3 1047.8,2439.5 			"/>
		</g>
		<g>
			<path class="st7" d="M1358.4,2493.8h-153l1.2-5.9c1.1-5.4,11.2-52.8,27.8-64.6c12.6-9,26.1-8.7,26.7-8.6h77.4l-4.3-34.7h-90.3
				v-9.9h99.1L1358.4,2493.8z M1217.7,2483.9h129.5l-7.4-59.3H1261c-0.2,0-11.1-0.2-20.8,6.8
				C1230.2,2438.5,1221.6,2467.7,1217.7,2483.9"/>
			<path class="st7" d="M1276.3,2453.5c0-5.4,4.4-9.8,9.8-9.8c5.4,0,9.8,4.4,9.8,9.8c0,5.4-4.4,9.8-9.8,9.8
				C1280.7,2463.3,1276.3,2458.9,1276.3,2453.5"/>
		</g>
	</g>
</g>
</svg>
